<svg width="1440" height="61" viewBox="0 0 1440 61" fill="none" xmlns="http://www.w3.org/2000/svg">
<rect width="1440" height="60" transform="translate(0 0.5)" fill="#041E75"/>
<path d="M25.4915 31.7045C25.4915 30.4517 25.6539 29.3 25.9787 28.2493C26.3068 27.1953 26.7741 26.2259 27.3807 25.3409H28.4148C28.1761 25.669 27.9524 26.0734 27.7436 26.554C27.5381 27.0312 27.3575 27.5566 27.2017 28.13C27.0459 28.7 26.9233 29.29 26.8338 29.8999C26.7476 30.5097 26.7045 31.1113 26.7045 31.7045C26.7045 32.4934 26.7808 33.2938 26.9332 34.1058C27.0857 34.9179 27.2912 35.6719 27.5497 36.3679C27.8082 37.0639 28.0966 37.6307 28.4148 38.0682H27.3807C26.7741 37.1832 26.3068 36.2154 25.9787 35.1648C25.6539 34.1108 25.4915 32.9574 25.4915 31.7045ZM33.0843 36.1591C32.3684 36.1591 31.752 35.9901 31.2349 35.652C30.7179 35.3139 30.3201 34.8482 30.0417 34.255C29.7633 33.6617 29.6241 32.9839 29.6241 32.2216C29.6241 31.446 29.7666 30.7616 30.0517 30.1683C30.34 29.5717 30.7411 29.1061 31.2548 28.7713C31.7718 28.4332 32.3751 28.2642 33.0645 28.2642C33.6014 28.2642 34.0853 28.3636 34.5162 28.5625C34.947 28.7614 35.3 29.0398 35.5751 29.3977C35.8502 29.7557 36.0209 30.1733 36.0872 30.6506H34.9139C34.8244 30.3026 34.6255 29.9943 34.3173 29.7259C34.0124 29.4541 33.6014 29.3182 33.0843 29.3182C32.627 29.3182 32.2259 29.4375 31.8812 29.6761C31.5398 29.9115 31.273 30.2446 31.0808 30.6754C30.8919 31.103 30.7974 31.6051 30.7974 32.1818C30.7974 32.7718 30.8902 33.2855 31.0758 33.723C31.2647 34.1605 31.5299 34.5002 31.8713 34.7422C32.216 34.9841 32.6203 35.1051 33.0843 35.1051C33.3893 35.1051 33.666 35.0521 33.9146 34.946C34.1632 34.84 34.3736 34.6875 34.546 34.4886C34.7183 34.2898 34.841 34.0511 34.9139 33.7727H36.0872C36.0209 34.2235 35.8568 34.6295 35.595 34.9908C35.3365 35.3487 34.9934 35.6338 34.5659 35.8459C34.1416 36.0547 33.6478 36.1591 33.0843 36.1591ZM40.3081 31.7045C40.3081 32.9574 40.144 34.1108 39.8159 35.1648C39.4911 36.2154 39.0254 37.1832 38.4189 38.0682H37.3848C37.6234 37.7401 37.8455 37.3357 38.051 36.8551C38.2598 36.3778 38.4421 35.8542 38.5978 35.2841C38.7536 34.7107 38.8746 34.1191 38.9608 33.5092C39.0502 32.8961 39.095 32.2945 39.095 31.7045C39.095 30.9157 39.0188 30.1153 38.8663 29.3033C38.7138 28.4912 38.5083 27.7372 38.2498 27.0412C37.9913 26.3452 37.7029 25.7784 37.3848 25.3409H38.4189C39.0254 26.2259 39.4911 27.1953 39.8159 28.2493C40.144 29.3 40.3081 30.4517 40.3081 31.7045ZM46.7923 36V35.1051L50.1531 31.4261C50.5475 30.9953 50.8723 30.6207 51.1275 30.3026C51.3827 29.9811 51.5716 29.6795 51.6942 29.3977C51.8202 29.1127 51.8832 28.8144 51.8832 28.5028C51.8832 28.1449 51.797 27.835 51.6246 27.5732C51.4556 27.3113 51.2236 27.1091 50.9286 26.9666C50.6336 26.8241 50.3022 26.7528 49.9343 26.7528C49.5432 26.7528 49.2018 26.834 48.9102 26.9964C48.6218 27.1555 48.3981 27.3793 48.239 27.6676C48.0832 27.956 48.0053 28.294 48.0053 28.6818H46.832C46.832 28.0852 46.9696 27.5616 47.2447 27.1108C47.5198 26.66 47.8943 26.3087 48.3683 26.0568C48.8455 25.8049 49.3808 25.679 49.9741 25.679C50.5707 25.679 51.0993 25.8049 51.56 26.0568C52.0207 26.3087 52.382 26.6484 52.6438 27.076C52.9057 27.5036 53.0366 27.9792 53.0366 28.5028C53.0366 28.8774 52.9686 29.2436 52.8327 29.6016C52.7002 29.9562 52.4682 30.3523 52.1367 30.7898C51.8086 31.224 51.3529 31.7543 50.7695 32.3807L48.4826 34.8267V34.9062H53.2156V36H46.7923ZM58.5898 36.1392C57.8408 36.1392 57.2028 35.9354 56.6758 35.5277C56.1488 35.1167 55.7461 34.5218 55.4677 33.7429C55.1893 32.9607 55.0501 32.0161 55.0501 30.9091C55.0501 29.8087 55.1893 28.8691 55.4677 28.0902C55.7494 27.308 56.1538 26.7114 56.6808 26.3004C57.2111 25.8861 57.8474 25.679 58.5898 25.679C59.3323 25.679 59.967 25.8861 60.494 26.3004C61.0243 26.7114 61.4286 27.308 61.707 28.0902C61.9888 28.8691 62.1296 29.8087 62.1296 30.9091C62.1296 32.0161 61.9904 32.9607 61.712 33.7429C61.4336 34.5218 61.0309 35.1167 60.5039 35.5277C59.9769 35.9354 59.3389 36.1392 58.5898 36.1392ZM58.5898 35.0455C59.3323 35.0455 59.909 34.6875 60.32 33.9716C60.7309 33.2557 60.9364 32.2348 60.9364 30.9091C60.9364 30.0275 60.842 29.2768 60.6531 28.657C60.4674 28.0372 60.199 27.5649 59.8477 27.2401C59.4996 26.9152 59.0804 26.7528 58.5898 26.7528C57.854 26.7528 57.279 27.1158 56.8647 27.8416C56.4504 28.5642 56.2433 29.5866 56.2433 30.9091C56.2433 31.7907 56.3361 32.5398 56.5217 33.1562C56.7073 33.7727 56.9741 34.2417 57.3221 34.5632C57.6734 34.8847 58.096 35.0455 58.5898 35.0455ZM64.0188 36V35.1051L67.3796 31.4261C67.774 30.9953 68.0988 30.6207 68.354 30.3026C68.6093 29.9811 68.7982 29.6795 68.9208 29.3977C69.0468 29.1127 69.1097 28.8144 69.1097 28.5028C69.1097 28.1449 69.0236 27.835 68.8512 27.5732C68.6822 27.3113 68.4502 27.1091 68.1552 26.9666C67.8602 26.8241 67.5288 26.7528 67.1609 26.7528C66.7698 26.7528 66.4284 26.834 66.1367 26.9964C65.8484 27.1555 65.6246 27.3793 65.4656 27.6676C65.3098 27.956 65.2319 28.294 65.2319 28.6818H64.0586C64.0586 28.0852 64.1961 27.5616 64.4712 27.1108C64.7463 26.66 65.1209 26.3087 65.5948 26.0568C66.0721 25.8049 66.6074 25.679 67.2006 25.679C67.7972 25.679 68.3259 25.8049 68.7866 26.0568C69.2473 26.3087 69.6085 26.6484 69.8704 27.076C70.1322 27.5036 70.2631 27.9792 70.2631 28.5028C70.2631 28.8774 70.1952 29.2436 70.0593 29.6016C69.9267 29.9562 69.6947 30.3523 69.3633 30.7898C69.0352 31.224 68.5794 31.7543 67.9961 32.3807L65.7092 34.8267V34.9062H70.4421V36H64.0188ZM75.6772 36.1392C75.0939 36.1392 74.5685 36.0232 74.1012 35.7912C73.6339 35.5592 73.2594 35.241 72.9776 34.8366C72.6959 34.4323 72.5418 33.9716 72.5153 33.4545H73.7085C73.7549 33.9152 73.9637 34.2964 74.3349 34.598C74.7094 34.8963 75.1568 35.0455 75.6772 35.0455C76.0948 35.0455 76.466 34.9477 76.7908 34.7521C77.119 34.5566 77.3758 34.2881 77.5614 33.9467C77.7504 33.602 77.8448 33.2126 77.8448 32.7784C77.8448 32.3343 77.747 31.9382 77.5515 31.5902C77.3593 31.2389 77.0941 30.9621 76.756 30.7599C76.418 30.5578 76.0318 30.455 75.5977 30.4517C75.2861 30.4484 74.9663 30.4964 74.6381 30.5959C74.31 30.692 74.0399 30.8163 73.8278 30.9688L72.6744 30.8295L73.2908 25.8182H78.5806V26.9119H74.3249L73.967 29.9148H74.0266C74.2354 29.7491 74.4973 29.6115 74.8121 29.5021C75.127 29.3928 75.4551 29.3381 75.7965 29.3381C76.4196 29.3381 76.9748 29.4872 77.462 29.7855C77.9525 30.0805 78.337 30.4848 78.6154 30.9986C78.8971 31.5123 79.038 32.099 79.038 32.7585C79.038 33.4081 78.8922 33.9882 78.6005 34.4986C78.3121 35.0057 77.9144 35.4067 77.4073 35.7017C76.9002 35.9934 76.3235 36.1392 75.6772 36.1392ZM85.1294 36V25.8182H88.5698C89.3652 25.8182 90.0182 25.9541 90.5286 26.2259C91.039 26.4943 91.4168 26.8639 91.6621 27.3345C91.9074 27.8052 92.03 28.3404 92.03 28.9403C92.03 29.5402 91.9074 30.0722 91.6621 30.5362C91.4168 31.0002 91.0407 31.3648 90.5336 31.63C90.0265 31.8918 89.3785 32.0227 88.5897 32.0227H85.8056V30.9091H88.5499C89.0935 30.9091 89.531 30.8295 89.8624 30.6705C90.1971 30.5114 90.4391 30.286 90.5882 29.9943C90.7407 29.6993 90.8169 29.348 90.8169 28.9403C90.8169 28.5327 90.7407 28.1764 90.5882 27.8714C90.4358 27.5665 90.1922 27.3312 89.8574 27.1655C89.5227 26.9964 89.0802 26.9119 88.53 26.9119H86.3624V36H85.1294ZM89.9221 31.4261L92.4277 36H90.9959L88.53 31.4261H89.9221ZM98.7379 32.8778V28.3636H99.9112V36H98.7379V34.7074H98.6584C98.4794 35.0952 98.201 35.425 97.8232 35.6967C97.4453 35.9652 96.968 36.0994 96.3913 36.0994C95.9141 36.0994 95.4898 35.995 95.1186 35.7862C94.7474 35.5741 94.4557 35.2559 94.2436 34.8317C94.0315 34.4041 93.9254 33.8655 93.9254 33.2159V28.3636H95.0987V33.1364C95.0987 33.6932 95.2545 34.1373 95.5661 34.4688C95.8809 34.8002 96.282 34.9659 96.7692 34.9659C97.0608 34.9659 97.3575 34.8913 97.6591 34.7422C97.964 34.593 98.2192 34.3643 98.4247 34.0561C98.6335 33.7479 98.7379 33.3551 98.7379 32.8778ZM102.06 38.8636V28.3636H103.194V29.5767H103.333C103.419 29.4441 103.538 29.2751 103.691 29.0696C103.847 28.8608 104.069 28.6752 104.357 28.5128C104.649 28.3471 105.043 28.2642 105.54 28.2642C106.183 28.2642 106.75 28.425 107.241 28.7464C107.731 29.0679 108.114 29.5237 108.389 30.1136C108.664 30.7036 108.802 31.3996 108.802 32.2017C108.802 33.0104 108.664 33.7114 108.389 34.3047C108.114 34.8946 107.733 35.352 107.246 35.6768C106.758 35.9983 106.197 36.1591 105.56 36.1591C105.07 36.1591 104.677 36.0779 104.382 35.9155C104.087 35.7498 103.86 35.5625 103.701 35.3537C103.542 35.1416 103.419 34.9659 103.333 34.8267H103.233V38.8636H102.06ZM103.214 32.1818C103.214 32.7585 103.298 33.2673 103.467 33.7081C103.636 34.1456 103.883 34.4886 104.208 34.7372C104.533 34.9825 104.93 35.1051 105.401 35.1051C105.892 35.1051 106.301 34.9759 106.629 34.7173C106.961 34.4555 107.209 34.1042 107.375 33.6634C107.544 33.2192 107.628 32.7254 107.628 32.1818C107.628 31.6449 107.546 31.161 107.38 30.7301C107.217 30.2959 106.97 29.9529 106.639 29.701C106.311 29.4458 105.898 29.3182 105.401 29.3182C104.924 29.3182 104.523 29.4392 104.198 29.6811C103.873 29.9197 103.628 30.2545 103.462 30.6854C103.296 31.1129 103.214 31.6117 103.214 32.1818ZM113.793 36.1591C113.057 36.1591 112.423 35.9967 111.889 35.6719C111.359 35.3438 110.949 34.8864 110.661 34.2997C110.376 33.7098 110.233 33.0237 110.233 32.2415C110.233 31.4593 110.376 30.7699 110.661 30.1733C110.949 29.5734 111.35 29.1061 111.864 28.7713C112.381 28.4332 112.984 28.2642 113.674 28.2642C114.072 28.2642 114.464 28.3305 114.852 28.4631C115.24 28.5956 115.593 28.8111 115.911 29.1094C116.229 29.4044 116.483 29.7955 116.672 30.2827C116.861 30.7699 116.955 31.3698 116.955 32.0824V32.5795H111.069V31.5653H115.762C115.762 31.1345 115.676 30.75 115.503 30.4119C115.334 30.0739 115.092 29.8071 114.778 29.6115C114.466 29.416 114.098 29.3182 113.674 29.3182C113.206 29.3182 112.802 29.4342 112.461 29.6662C112.123 29.8949 111.863 30.1932 111.68 30.5611C111.498 30.929 111.407 31.3234 111.407 31.7443V32.4205C111.407 32.9972 111.506 33.486 111.705 33.8871C111.907 34.2848 112.187 34.5881 112.545 34.7969C112.903 35.0024 113.319 35.1051 113.793 35.1051C114.101 35.1051 114.38 35.062 114.628 34.9759C114.88 34.8864 115.097 34.7538 115.28 34.5781C115.462 34.3991 115.603 34.1771 115.702 33.9119L116.836 34.2301C116.716 34.6146 116.516 34.9527 116.234 35.2443C115.952 35.5327 115.604 35.758 115.19 35.9205C114.776 36.0795 114.31 36.1591 113.793 36.1591ZM119.913 31.4062V36H118.74V28.3636H119.873V29.5568H119.973C120.152 29.169 120.424 28.8575 120.788 28.6222C121.153 28.3835 121.623 28.2642 122.2 28.2642C122.717 28.2642 123.17 28.3703 123.557 28.5824C123.945 28.7912 124.247 29.1094 124.462 29.5369C124.678 29.9612 124.785 30.4981 124.785 31.1477V36H123.612V31.2273C123.612 30.6274 123.456 30.16 123.145 29.8253C122.833 29.4872 122.406 29.3182 121.862 29.3182C121.488 29.3182 121.153 29.3994 120.858 29.5618C120.566 29.7242 120.336 29.9612 120.167 30.2727C119.998 30.5843 119.913 30.9621 119.913 31.4062ZM130.131 36.1591C129.395 36.1591 128.761 35.9967 128.227 35.6719C127.697 35.3438 127.287 34.8864 126.999 34.2997C126.714 33.7098 126.571 33.0237 126.571 32.2415C126.571 31.4593 126.714 30.7699 126.999 30.1733C127.287 29.5734 127.688 29.1061 128.202 28.7713C128.719 28.4332 129.322 28.2642 130.012 28.2642C130.409 28.2642 130.802 28.3305 131.19 28.4631C131.578 28.5956 131.931 28.8111 132.249 29.1094C132.567 29.4044 132.821 29.7955 133.01 30.2827C133.199 30.7699 133.293 31.3698 133.293 32.0824V32.5795H127.407V31.5653H132.1C132.1 31.1345 132.014 30.75 131.841 30.4119C131.672 30.0739 131.43 29.8071 131.115 29.6115C130.804 29.416 130.436 29.3182 130.012 29.3182C129.544 29.3182 129.14 29.4342 128.799 29.6662C128.461 29.8949 128.2 30.1932 128.018 30.5611C127.836 30.929 127.745 31.3234 127.745 31.7443V32.4205C127.745 32.9972 127.844 33.486 128.043 33.8871C128.245 34.2848 128.525 34.5881 128.883 34.7969C129.241 35.0024 129.657 35.1051 130.131 35.1051C130.439 35.1051 130.718 35.062 130.966 34.9759C131.218 34.8864 131.435 34.7538 131.618 34.5781C131.8 34.3991 131.941 34.1771 132.04 33.9119L133.174 34.2301C133.054 34.6146 132.854 34.9527 132.572 35.2443C132.29 35.5327 131.942 35.758 131.528 35.9205C131.114 36.0795 130.648 36.1591 130.131 36.1591ZM138.399 28.3636V29.358H134.441V28.3636H138.399ZM135.595 26.5341H136.768V33.8125C136.768 34.1439 136.816 34.3925 136.912 34.5582C137.012 34.7206 137.138 34.83 137.29 34.8864C137.446 34.9394 137.61 34.9659 137.782 34.9659C137.912 34.9659 138.018 34.9593 138.1 34.946C138.183 34.9295 138.25 34.9162 138.299 34.9062L138.538 35.9602C138.458 35.9901 138.347 36.0199 138.205 36.0497C138.062 36.0829 137.882 36.0994 137.663 36.0994C137.332 36.0994 137.007 36.0282 136.689 35.8857C136.374 35.7431 136.112 35.526 135.903 35.2344C135.698 34.9427 135.595 34.5748 135.595 34.1307V26.5341ZM144.26 36V25.8182H147.701C148.499 25.8182 149.152 25.9624 149.659 26.2507C150.17 26.5357 150.548 26.9219 150.793 27.4091C151.038 27.8963 151.161 28.4399 151.161 29.0398C151.161 29.6397 151.038 30.1849 150.793 30.6754C150.551 31.166 150.176 31.5571 149.669 31.8487C149.162 32.1371 148.513 32.2812 147.721 32.2812H145.255V31.1875H147.681C148.228 31.1875 148.667 31.093 148.998 30.9041C149.33 30.7152 149.57 30.46 149.719 30.1385C149.872 29.8137 149.948 29.4474 149.948 29.0398C149.948 28.6321 149.872 28.2675 149.719 27.946C149.57 27.6245 149.328 27.3726 148.993 27.1903C148.658 27.0047 148.214 26.9119 147.661 26.9119H145.493V36H144.26ZM155.235 36.179C154.751 36.179 154.312 36.0878 153.918 35.9055C153.523 35.7199 153.21 35.4531 152.978 35.1051C152.746 34.7538 152.63 34.3295 152.63 33.8324C152.63 33.3949 152.716 33.0402 152.888 32.7685C153.061 32.4934 153.291 32.2779 153.58 32.1222C153.868 31.9664 154.186 31.8504 154.534 31.7741C154.885 31.6946 155.238 31.6316 155.593 31.5852C156.057 31.5256 156.433 31.4808 156.722 31.451C157.013 31.4179 157.225 31.3632 157.358 31.2869C157.494 31.2107 157.562 31.0781 157.562 30.8892V30.8494C157.562 30.3589 157.428 29.9777 157.159 29.706C156.894 29.4342 156.491 29.2983 155.951 29.2983C155.391 29.2983 154.952 29.4209 154.634 29.6662C154.315 29.9115 154.092 30.1733 153.962 30.4517L152.849 30.054C153.048 29.59 153.313 29.2287 153.644 28.9702C153.979 28.7083 154.344 28.526 154.738 28.4233C155.136 28.3172 155.527 28.2642 155.911 28.2642C156.156 28.2642 156.438 28.294 156.756 28.3537C157.078 28.41 157.388 28.5277 157.686 28.7067C157.988 28.8857 158.238 29.1558 158.437 29.517C158.636 29.8783 158.735 30.3622 158.735 30.9688V36H157.562V34.9659H157.502C157.423 35.1316 157.29 35.3089 157.104 35.4979C156.919 35.6868 156.672 35.8475 156.364 35.9801C156.055 36.1127 155.679 36.179 155.235 36.179ZM155.414 35.125C155.878 35.125 156.269 35.0339 156.587 34.8516C156.909 34.6693 157.151 34.4339 157.313 34.1456C157.479 33.8572 157.562 33.554 157.562 33.2358V32.1619C157.512 32.2216 157.403 32.2763 157.234 32.326C157.068 32.3724 156.876 32.4138 156.657 32.4503C156.442 32.4834 156.231 32.5133 156.026 32.5398C155.823 32.563 155.659 32.5829 155.533 32.5994C155.228 32.6392 154.943 32.7038 154.678 32.7933C154.416 32.8795 154.204 33.0104 154.042 33.1861C153.883 33.3584 153.803 33.5937 153.803 33.892C153.803 34.2997 153.954 34.608 154.256 34.8168C154.561 35.0223 154.947 35.125 155.414 35.125ZM161.359 38.8636C161.16 38.8636 160.983 38.8471 160.827 38.8139C160.671 38.7841 160.563 38.7543 160.504 38.7244L160.802 37.6903C161.087 37.7633 161.339 37.7898 161.558 37.7699C161.776 37.75 161.97 37.6522 162.139 37.4766C162.312 37.3042 162.469 37.0241 162.612 36.6364L162.83 36.0398L160.007 28.3636H161.279L163.387 34.4489H163.467L165.575 28.3636H166.847L163.606 37.1136C163.46 37.508 163.28 37.8345 163.064 38.093C162.849 38.3549 162.598 38.5488 162.313 38.6747C162.032 38.8007 161.713 38.8636 161.359 38.8636ZM168.396 36V28.3636H169.53V29.5568H169.629C169.788 29.1491 170.045 28.8326 170.4 28.6072C170.754 28.3786 171.18 28.2642 171.677 28.2642C172.181 28.2642 172.6 28.3786 172.935 28.6072C173.273 28.8326 173.537 29.1491 173.726 29.5568H173.805C174.001 29.1624 174.294 28.8492 174.685 28.6172C175.076 28.3819 175.545 28.2642 176.092 28.2642C176.775 28.2642 177.333 28.478 177.768 28.9055C178.202 29.3298 178.419 29.991 178.419 30.8892V36H177.246V30.8892C177.246 30.3258 177.091 29.9231 176.783 29.6811C176.475 29.4392 176.112 29.3182 175.694 29.3182C175.157 29.3182 174.742 29.4806 174.447 29.8054C174.152 30.1269 174.004 30.5346 174.004 31.0284V36H172.811V30.7699C172.811 30.3357 172.67 29.986 172.388 29.7209C172.107 29.4524 171.744 29.3182 171.3 29.3182C170.995 29.3182 170.71 29.3994 170.444 29.5618C170.183 29.7242 169.97 29.9496 169.808 30.2379C169.649 30.523 169.569 30.8527 169.569 31.2273V36H168.396ZM183.766 36.1591C183.03 36.1591 182.395 35.9967 181.862 35.6719C181.331 35.3438 180.922 34.8864 180.634 34.2997C180.349 33.7098 180.206 33.0237 180.206 32.2415C180.206 31.4593 180.349 30.7699 180.634 30.1733C180.922 29.5734 181.323 29.1061 181.837 28.7713C182.354 28.4332 182.957 28.2642 183.646 28.2642C184.044 28.2642 184.437 28.3305 184.825 28.4631C185.213 28.5956 185.566 28.8111 185.884 29.1094C186.202 29.4044 186.455 29.7955 186.644 30.2827C186.833 30.7699 186.928 31.3698 186.928 32.0824V32.5795H181.041V31.5653H185.735C185.735 31.1345 185.648 30.75 185.476 30.4119C185.307 30.0739 185.065 29.8071 184.75 29.6115C184.439 29.416 184.071 29.3182 183.646 29.3182C183.179 29.3182 182.775 29.4342 182.433 29.6662C182.095 29.8949 181.835 30.1932 181.653 30.5611C181.471 30.929 181.379 31.3234 181.379 31.7443V32.4205C181.379 32.9972 181.479 33.486 181.678 33.8871C181.88 34.2848 182.16 34.5881 182.518 34.7969C182.876 35.0024 183.292 35.1051 183.766 35.1051C184.074 35.1051 184.352 35.062 184.601 34.9759C184.853 34.8864 185.07 34.7538 185.252 34.5781C185.435 34.3991 185.575 34.1771 185.675 33.9119L186.808 34.2301C186.689 34.6146 186.489 34.9527 186.207 35.2443C185.925 35.5327 185.577 35.758 185.163 35.9205C184.749 36.0795 184.283 36.1591 183.766 36.1591ZM189.886 31.4062V36H188.713V28.3636H189.846V29.5568H189.945C190.124 29.169 190.396 28.8575 190.761 28.6222C191.125 28.3835 191.596 28.2642 192.173 28.2642C192.69 28.2642 193.142 28.3703 193.53 28.5824C193.918 28.7912 194.219 29.1094 194.435 29.5369C194.65 29.9612 194.758 30.4981 194.758 31.1477V36H193.585V31.2273C193.585 30.6274 193.429 30.16 193.117 29.8253C192.806 29.4872 192.378 29.3182 191.835 29.3182C191.46 29.3182 191.125 29.3994 190.83 29.5618C190.539 29.7242 190.308 29.9612 190.139 30.2727C189.97 30.5843 189.886 30.9621 189.886 31.4062ZM200.223 28.3636V29.358H196.266V28.3636H200.223ZM197.419 26.5341H198.592V33.8125C198.592 34.1439 198.64 34.3925 198.737 34.5582C198.836 34.7206 198.962 34.83 199.114 34.8864C199.27 34.9394 199.434 34.9659 199.607 34.9659C199.736 34.9659 199.842 34.9593 199.925 34.946C200.008 34.9295 200.074 34.9162 200.124 34.9062L200.362 35.9602C200.283 35.9901 200.172 36.0199 200.029 36.0497C199.887 36.0829 199.706 36.0994 199.487 36.0994C199.156 36.0994 198.831 36.0282 198.513 35.8857C198.198 35.7431 197.936 35.526 197.727 35.2344C197.522 34.9427 197.419 34.5748 197.419 34.1307V26.5341ZM207.26 30.0739L206.206 30.3722C206.14 30.1965 206.042 30.0258 205.913 29.8601C205.787 29.6911 205.615 29.5518 205.396 29.4425C205.177 29.3331 204.897 29.2784 204.556 29.2784C204.088 29.2784 203.699 29.3861 203.387 29.6016C203.079 29.8137 202.925 30.0838 202.925 30.4119C202.925 30.7036 203.031 30.9339 203.243 31.103C203.455 31.272 203.787 31.4129 204.238 31.5256L205.371 31.804C206.054 31.9697 206.563 32.2232 206.897 32.5646C207.232 32.9027 207.4 33.3385 207.4 33.8722C207.4 34.3097 207.274 34.7008 207.022 35.0455C206.773 35.3902 206.425 35.6619 205.978 35.8608C205.53 36.0597 205.01 36.1591 204.417 36.1591C203.638 36.1591 202.993 35.9901 202.483 35.652C201.972 35.3139 201.649 34.8201 201.513 34.1705L202.627 33.892C202.733 34.303 202.933 34.6113 203.228 34.8168C203.527 35.0223 203.916 35.125 204.397 35.125C204.944 35.125 205.378 35.009 205.699 34.777C206.024 34.5417 206.186 34.2599 206.186 33.9318C206.186 33.6667 206.094 33.4446 205.908 33.2656C205.722 33.0833 205.437 32.9474 205.053 32.858L203.78 32.5597C203.081 32.3939 202.567 32.1371 202.239 31.7891C201.914 31.4377 201.752 30.9986 201.752 30.4716C201.752 30.0407 201.873 29.6596 202.115 29.3281C202.36 28.9967 202.693 28.7365 203.114 28.5476C203.538 28.3587 204.019 28.2642 204.556 28.2642C205.311 28.2642 205.905 28.4299 206.336 28.7614C206.77 29.0928 207.078 29.5303 207.26 30.0739ZM210.021 36.0795C209.776 36.0795 209.565 35.9917 209.389 35.8161C209.214 35.6404 209.126 35.4299 209.126 35.1847C209.126 34.9394 209.214 34.7289 209.389 34.5533C209.565 34.3776 209.776 34.2898 210.021 34.2898C210.266 34.2898 210.477 34.3776 210.652 34.5533C210.828 34.7289 210.916 34.9394 210.916 35.1847C210.916 35.3471 210.874 35.4962 210.791 35.6321C210.712 35.768 210.604 35.8774 210.468 35.9602C210.336 36.0398 210.186 36.0795 210.021 36.0795ZM217.535 36H216.243L219.981 25.8182H221.254L224.993 36H223.7L220.657 27.429H220.578L217.535 36ZM218.013 32.0227H223.223V33.1165H218.013V32.0227ZM227.593 25.8182V36H226.42V25.8182H227.593ZM230.915 25.8182V36H229.742V25.8182H230.915ZM237.002 36V28.3636H238.135V29.517H238.215C238.354 29.1392 238.606 28.8326 238.97 28.5973C239.335 28.362 239.746 28.2443 240.203 28.2443C240.289 28.2443 240.397 28.246 240.526 28.2493C240.656 28.2526 240.753 28.2576 240.82 28.2642V29.4574C240.78 29.4474 240.689 29.4325 240.546 29.4126C240.407 29.3894 240.26 29.3778 240.104 29.3778C239.733 29.3778 239.401 29.4557 239.11 29.6115C238.821 29.764 238.593 29.9761 238.423 30.2479C238.258 30.5163 238.175 30.8229 238.175 31.1676V36H237.002ZM242.211 36V28.3636H243.384V36H242.211ZM242.807 27.0909C242.578 27.0909 242.381 27.013 242.216 26.8572C242.053 26.7015 241.972 26.5142 241.972 26.2955C241.972 26.0767 242.053 25.8894 242.216 25.7337C242.381 25.5779 242.578 25.5 242.807 25.5C243.036 25.5 243.231 25.5779 243.394 25.7337C243.56 25.8894 243.642 26.0767 243.642 26.2955C243.642 26.5142 243.56 26.7015 243.394 26.8572C243.231 27.013 243.036 27.0909 242.807 27.0909ZM248.615 39.0227C248.048 39.0227 247.561 38.9498 247.154 38.804C246.746 38.6615 246.406 38.4725 246.134 38.2372C245.866 38.0052 245.652 37.7566 245.493 37.4915L246.428 36.8352C246.534 36.9744 246.668 37.1335 246.83 37.3125C246.993 37.4948 247.215 37.6522 247.497 37.7848C247.782 37.9207 248.155 37.9886 248.615 37.9886C249.232 37.9886 249.74 37.8395 250.142 37.5412C250.543 37.2429 250.743 36.7756 250.743 36.1392V34.5881H250.644C250.557 34.7273 250.435 34.8996 250.276 35.1051C250.12 35.3073 249.895 35.4879 249.6 35.647C249.308 35.8028 248.914 35.8807 248.416 35.8807C247.8 35.8807 247.246 35.7348 246.756 35.4432C246.269 35.1515 245.883 34.7273 245.597 34.1705C245.316 33.6136 245.175 32.9375 245.175 32.142C245.175 31.3598 245.312 30.6787 245.588 30.0987C245.863 29.5154 246.245 29.0646 246.736 28.7464C247.227 28.425 247.793 28.2642 248.436 28.2642C248.933 28.2642 249.328 28.3471 249.619 28.5128C249.914 28.6752 250.14 28.8608 250.296 29.0696C250.455 29.2751 250.577 29.4441 250.664 29.5767H250.783V28.3636H251.916V36.2188C251.916 36.875 251.767 37.4086 251.469 37.8196C251.174 38.2339 250.776 38.5372 250.276 38.7294C249.779 38.925 249.225 39.0227 248.615 39.0227ZM248.575 34.8267C249.046 34.8267 249.444 34.719 249.769 34.5036C250.093 34.2881 250.34 33.9782 250.509 33.5739C250.678 33.1695 250.763 32.6856 250.763 32.1222C250.763 31.572 250.68 31.0864 250.514 30.6655C250.349 30.2446 250.103 29.9148 249.779 29.6761C249.454 29.4375 249.053 29.3182 248.575 29.3182C248.078 29.3182 247.664 29.4441 247.333 29.696C247.004 29.9479 246.758 30.286 246.592 30.7102C246.429 31.1345 246.348 31.6051 246.348 32.1222C246.348 32.6525 246.431 33.1214 246.597 33.5291C246.766 33.9335 247.014 34.2517 247.343 34.4837C247.674 34.7124 248.085 34.8267 248.575 34.8267ZM255.237 31.4062V36H254.064V25.8182H255.237V29.5568H255.337C255.516 29.1624 255.784 28.8492 256.142 28.6172C256.503 28.3819 256.984 28.2642 257.584 28.2642C258.104 28.2642 258.56 28.3686 258.951 28.5774C259.342 28.7829 259.646 29.0994 259.861 29.527C260.08 29.9512 260.189 30.4915 260.189 31.1477V36H259.016V31.2273C259.016 30.6207 258.858 30.1518 258.544 29.8203C258.232 29.4856 257.799 29.3182 257.246 29.3182C256.861 29.3182 256.517 29.3994 256.212 29.5618C255.91 29.7242 255.672 29.9612 255.496 30.2727C255.324 30.5843 255.237 30.9621 255.237 31.4062ZM265.657 28.3636V29.358H261.699V28.3636H265.657ZM262.853 26.5341H264.026V33.8125C264.026 34.1439 264.074 34.3925 264.17 34.5582C264.27 34.7206 264.395 34.83 264.548 34.8864C264.704 34.9394 264.868 34.9659 265.04 34.9659C265.169 34.9659 265.275 34.9593 265.358 34.946C265.441 34.9295 265.507 34.9162 265.557 34.9062L265.796 35.9602C265.716 35.9901 265.605 36.0199 265.463 36.0497C265.32 36.0829 265.14 36.0994 264.921 36.0994C264.589 36.0994 264.265 36.0282 263.946 35.8857C263.632 35.7431 263.37 35.526 263.161 35.2344C262.955 34.9427 262.853 34.5748 262.853 34.1307V26.5341ZM272.694 30.0739L271.64 30.3722C271.574 30.1965 271.476 30.0258 271.347 29.8601C271.221 29.6911 271.048 29.5518 270.83 29.4425C270.611 29.3331 270.331 29.2784 269.989 29.2784C269.522 29.2784 269.133 29.3861 268.821 29.6016C268.513 29.8137 268.359 30.0838 268.359 30.4119C268.359 30.7036 268.465 30.9339 268.677 31.103C268.889 31.272 269.22 31.4129 269.671 31.5256L270.805 31.804C271.487 31.9697 271.996 32.2232 272.331 32.5646C272.666 32.9027 272.833 33.3385 272.833 33.8722C272.833 34.3097 272.707 34.7008 272.455 35.0455C272.207 35.3902 271.859 35.6619 271.411 35.8608C270.964 36.0597 270.443 36.1591 269.85 36.1591C269.071 36.1591 268.427 35.9901 267.916 35.652C267.406 35.3139 267.083 34.8201 266.947 34.1705L268.06 33.892C268.166 34.303 268.367 34.6113 268.662 34.8168C268.96 35.0223 269.35 35.125 269.83 35.125C270.377 35.125 270.811 35.009 271.133 34.777C271.458 34.5417 271.62 34.2599 271.62 33.9318C271.62 33.6667 271.527 33.4446 271.342 33.2656C271.156 33.0833 270.871 32.9474 270.487 32.858L269.214 32.5597C268.514 32.3939 268.001 32.1371 267.673 31.7891C267.348 31.4377 267.185 30.9986 267.185 30.4716C267.185 30.0407 267.306 29.6596 267.548 29.3281C267.794 28.9967 268.127 28.7365 268.548 28.5476C268.972 28.3587 269.452 28.2642 269.989 28.2642C270.745 28.2642 271.338 28.4299 271.769 28.7614C272.203 29.0928 272.512 29.5303 272.694 30.0739ZM278.537 36V28.3636H279.67V29.517H279.75C279.889 29.1392 280.141 28.8326 280.506 28.5973C280.87 28.362 281.281 28.2443 281.738 28.2443C281.825 28.2443 281.932 28.246 282.062 28.2493C282.191 28.2526 282.289 28.2576 282.355 28.2642V29.4574C282.315 29.4474 282.224 29.4325 282.081 29.4126C281.942 29.3894 281.795 29.3778 281.639 29.3778C281.268 29.3778 280.936 29.4557 280.645 29.6115C280.356 29.764 280.128 29.9761 279.959 30.2479C279.793 30.5163 279.71 30.8229 279.71 31.1676V36H278.537ZM286.715 36.1591C285.979 36.1591 285.345 35.9967 284.811 35.6719C284.281 35.3438 283.871 34.8864 283.583 34.2997C283.298 33.7098 283.155 33.0237 283.155 32.2415C283.155 31.4593 283.298 30.7699 283.583 30.1733C283.871 29.5734 284.272 29.1061 284.786 28.7713C285.303 28.4332 285.906 28.2642 286.596 28.2642C286.993 28.2642 287.386 28.3305 287.774 28.4631C288.162 28.5956 288.515 28.8111 288.833 29.1094C289.151 29.4044 289.405 29.7955 289.594 30.2827C289.782 30.7699 289.877 31.3698 289.877 32.0824V32.5795H283.991V31.5653H288.684C288.684 31.1345 288.598 30.75 288.425 30.4119C288.256 30.0739 288.014 29.8071 287.699 29.6115C287.388 29.416 287.02 29.3182 286.596 29.3182C286.128 29.3182 285.724 29.4342 285.383 29.6662C285.045 29.8949 284.784 30.1932 284.602 30.5611C284.42 30.929 284.329 31.3234 284.329 31.7443V32.4205C284.329 32.9972 284.428 33.486 284.627 33.8871C284.829 34.2848 285.109 34.5881 285.467 34.7969C285.825 35.0024 286.241 35.1051 286.715 35.1051C287.023 35.1051 287.302 35.062 287.55 34.9759C287.802 34.8864 288.019 34.7538 288.202 34.5781C288.384 34.3991 288.525 34.1771 288.624 33.9119L289.758 34.2301C289.638 34.6146 289.438 34.9527 289.156 35.2443C288.874 35.5327 288.526 35.758 288.112 35.9205C287.698 36.0795 287.232 36.1591 286.715 36.1591ZM297.071 30.0739L296.017 30.3722C295.951 30.1965 295.853 30.0258 295.724 29.8601C295.598 29.6911 295.425 29.5518 295.206 29.4425C294.988 29.3331 294.708 29.2784 294.366 29.2784C293.899 29.2784 293.51 29.3861 293.198 29.6016C292.89 29.8137 292.736 30.0838 292.736 30.4119C292.736 30.7036 292.842 30.9339 293.054 31.103C293.266 31.272 293.597 31.4129 294.048 31.5256L295.182 31.804C295.864 31.9697 296.373 32.2232 296.708 32.5646C297.043 32.9027 297.21 33.3385 297.21 33.8722C297.21 34.3097 297.084 34.7008 296.832 35.0455C296.584 35.3902 296.236 35.6619 295.788 35.8608C295.341 36.0597 294.82 36.1591 294.227 36.1591C293.448 36.1591 292.804 35.9901 292.293 35.652C291.783 35.3139 291.46 34.8201 291.324 34.1705L292.437 33.892C292.543 34.303 292.744 34.6113 293.039 34.8168C293.337 35.0223 293.727 35.125 294.207 35.125C294.754 35.125 295.188 35.009 295.51 34.777C295.835 34.5417 295.997 34.2599 295.997 33.9318C295.997 33.6667 295.904 33.4446 295.719 33.2656C295.533 33.0833 295.248 32.9474 294.863 32.858L293.591 32.5597C292.891 32.3939 292.378 32.1371 292.05 31.7891C291.725 31.4377 291.562 30.9986 291.562 30.4716C291.562 30.0407 291.683 29.6596 291.925 29.3281C292.171 28.9967 292.504 28.7365 292.925 28.5476C293.349 28.3587 293.829 28.2642 294.366 28.2642C295.122 28.2642 295.715 28.4299 296.146 28.7614C296.58 29.0928 296.889 29.5303 297.071 30.0739ZM302.178 36.1591C301.442 36.1591 300.807 35.9967 300.274 35.6719C299.743 35.3438 299.334 34.8864 299.046 34.2997C298.761 33.7098 298.618 33.0237 298.618 32.2415C298.618 31.4593 298.761 30.7699 299.046 30.1733C299.334 29.5734 299.735 29.1061 300.249 28.7713C300.766 28.4332 301.369 28.2642 302.059 28.2642C302.456 28.2642 302.849 28.3305 303.237 28.4631C303.625 28.5956 303.978 28.8111 304.296 29.1094C304.614 29.4044 304.868 29.7955 305.056 30.2827C305.245 30.7699 305.34 31.3698 305.34 32.0824V32.5795H299.453V31.5653H304.147C304.147 31.1345 304.06 30.75 303.888 30.4119C303.719 30.0739 303.477 29.8071 303.162 29.6115C302.851 29.416 302.483 29.3182 302.059 29.3182C301.591 29.3182 301.187 29.4342 300.846 29.6662C300.507 29.8949 300.247 30.1932 300.065 30.5611C299.883 30.929 299.792 31.3234 299.792 31.7443V32.4205C299.792 32.9972 299.891 33.486 300.09 33.8871C300.292 34.2848 300.572 34.5881 300.93 34.7969C301.288 35.0024 301.704 35.1051 302.178 35.1051C302.486 35.1051 302.765 35.062 303.013 34.9759C303.265 34.8864 303.482 34.7538 303.664 34.5781C303.847 34.3991 303.988 34.1771 304.087 33.9119L305.221 34.2301C305.101 34.6146 304.901 34.9527 304.619 35.2443C304.337 35.5327 303.989 35.758 303.575 35.9205C303.161 36.0795 302.695 36.1591 302.178 36.1591ZM307.125 36V28.3636H308.258V29.517H308.338C308.477 29.1392 308.729 28.8326 309.093 28.5973C309.458 28.362 309.869 28.2443 310.326 28.2443C310.413 28.2443 310.52 28.246 310.65 28.2493C310.779 28.2526 310.877 28.2576 310.943 28.2642V29.4574C310.903 29.4474 310.812 29.4325 310.669 29.4126C310.53 29.3894 310.383 29.3778 310.227 29.3778C309.856 29.3778 309.524 29.4557 309.233 29.6115C308.944 29.764 308.716 29.9761 308.547 30.2479C308.381 30.5163 308.298 30.8229 308.298 31.1676V36H307.125ZM318.81 28.3636L315.987 36H314.793L311.969 28.3636H313.242L315.35 34.4489H315.43L317.538 28.3636H318.81ZM323.287 36.1591C322.551 36.1591 321.917 35.9967 321.383 35.6719C320.853 35.3438 320.444 34.8864 320.155 34.2997C319.87 33.7098 319.728 33.0237 319.728 32.2415C319.728 31.4593 319.87 30.7699 320.155 30.1733C320.444 29.5734 320.845 29.1061 321.358 28.7713C321.875 28.4332 322.479 28.2642 323.168 28.2642C323.566 28.2642 323.958 28.3305 324.346 28.4631C324.734 28.5956 325.087 28.8111 325.405 29.1094C325.723 29.4044 325.977 29.7955 326.166 30.2827C326.355 30.7699 326.449 31.3698 326.449 32.0824V32.5795H320.563V31.5653H325.256C325.256 31.1345 325.17 30.75 324.998 30.4119C324.828 30.0739 324.587 29.8071 324.272 29.6115C323.96 29.416 323.592 29.3182 323.168 29.3182C322.701 29.3182 322.296 29.4342 321.955 29.6662C321.617 29.8949 321.357 30.1932 321.174 30.5611C320.992 30.929 320.901 31.3234 320.901 31.7443V32.4205C320.901 32.9972 321 33.486 321.199 33.8871C321.401 34.2848 321.681 34.5881 322.039 34.7969C322.397 35.0024 322.813 35.1051 323.287 35.1051C323.596 35.1051 323.874 35.062 324.123 34.9759C324.374 34.8864 324.592 34.7538 324.774 34.5781C324.956 34.3991 325.097 34.1771 325.196 33.9119L326.33 34.2301C326.211 34.6146 326.01 34.9527 325.728 35.2443C325.447 35.5327 325.099 35.758 324.684 35.9205C324.27 36.0795 323.804 36.1591 323.287 36.1591ZM331.118 36.1591C330.481 36.1591 329.919 35.9983 329.432 35.6768C328.945 35.352 328.564 34.8946 328.289 34.3047C328.014 33.7114 327.876 33.0104 327.876 32.2017C327.876 31.3996 328.014 30.7036 328.289 30.1136C328.564 29.5237 328.947 29.0679 329.437 28.7464C329.928 28.425 330.494 28.2642 331.137 28.2642C331.635 28.2642 332.027 28.3471 332.316 28.5128C332.607 28.6752 332.829 28.8608 332.982 29.0696C333.138 29.2751 333.259 29.4441 333.345 29.5767H333.444V25.8182H334.618V36H333.484V34.8267H333.345C333.259 34.9659 333.136 35.1416 332.977 35.3537C332.818 35.5625 332.591 35.7498 332.296 35.9155C332.001 36.0779 331.608 36.1591 331.118 36.1591ZM331.277 35.1051C331.747 35.1051 332.145 34.9825 332.47 34.7372C332.795 34.4886 333.042 34.1456 333.211 33.7081C333.38 33.2673 333.464 32.7585 333.464 32.1818C333.464 31.6117 333.381 31.1129 333.216 30.6854C333.05 30.2545 332.805 29.9197 332.48 29.6811C332.155 29.4392 331.754 29.3182 331.277 29.3182C330.779 29.3182 330.365 29.4458 330.034 29.701C329.706 29.9529 329.459 30.2959 329.293 30.7301C329.131 31.161 329.049 31.6449 329.049 32.1818C329.049 32.7254 329.132 33.2192 329.298 33.6634C329.467 34.1042 329.716 34.4555 330.044 34.7173C330.375 34.9759 330.786 35.1051 331.277 35.1051ZM337.784 36.0795C337.539 36.0795 337.329 35.9917 337.153 35.8161C336.977 35.6404 336.89 35.4299 336.89 35.1847C336.89 34.9394 336.977 34.7289 337.153 34.5533C337.329 34.3776 337.539 34.2898 337.784 34.2898C338.03 34.2898 338.24 34.3776 338.416 34.5533C338.592 34.7289 338.679 34.9394 338.679 35.1847C338.679 35.3471 338.638 35.4962 338.555 35.6321C338.475 35.768 338.368 35.8774 338.232 35.9602C338.099 36.0398 337.95 36.0795 337.784 36.0795Z" fill="white"/>
<circle cx="1322" cy="30.5" r="14" fill="white"/>
<path d="M1328.21 27.4831C1327.79 27.6693 1327.35 27.7857 1326.88 27.8556C1327.35 27.5762 1327.72 27.1339 1327.88 26.5985C1327.44 26.8546 1326.95 27.0408 1326.41 27.1572C1326 26.7149 1325.39 26.4355 1324.74 26.4355C1323.48 26.4355 1322.46 27.4598 1322.46 28.7169C1322.46 28.9031 1322.48 29.0661 1322.53 29.229C1320.64 29.1359 1318.94 28.228 1317.8 26.8313C1317.62 27.1805 1317.5 27.5529 1317.5 27.972C1317.5 28.7634 1317.89 29.4618 1318.52 29.8808C1318.15 29.8576 1317.8 29.7644 1317.48 29.6015V29.6248C1317.48 30.7422 1318.27 31.6733 1319.31 31.8828C1319.13 31.9294 1318.92 31.9527 1318.71 31.9527C1318.57 31.9527 1318.41 31.9294 1318.27 31.9061C1318.57 32.814 1319.41 33.4891 1320.41 33.4891C1319.62 34.0943 1318.64 34.4668 1317.57 34.4668C1317.38 34.4668 1317.2 34.4668 1317.03 34.4435C1318.06 35.0953 1319.24 35.4678 1320.55 35.4678C1324.76 35.4678 1327.07 31.976 1327.07 28.9497C1327.07 28.8566 1327.07 28.7402 1327.07 28.6471C1327.51 28.3444 1327.9 27.9487 1328.21 27.4831Z" fill="#1A3760"/>
<circle cx="1362" cy="30.5" r="14" fill="white"/>
<path d="M1360.71 36.8038V31.2503H1358.84V29.0859H1360.71V27.4898C1360.71 25.6375 1361.84 24.6289 1363.49 24.6289C1364.28 24.6289 1364.96 24.6878 1365.16 24.7142V26.6499L1364.02 26.6505C1363.12 26.6505 1362.94 27.0775 1362.94 27.7041V29.0859H1365.09L1364.81 31.2503H1362.94V36.8038H1360.71Z" fill="#1A3760"/>
<rect x="1388" y="16.5" width="28" height="28" rx="14" fill="white"/>
<path fill-rule="evenodd" clip-rule="evenodd" d="M1400.5 28.7322H1402.66V29.8114C1402.98 29.1907 1403.78 28.6331 1404.98 28.6331C1407.28 28.6331 1407.83 29.8686 1407.83 32.1354V36.3337H1405.5V32.6517C1405.5 31.3607 1405.19 30.6327 1404.39 30.6327C1403.29 30.6327 1402.83 31.4173 1402.83 32.6511V36.3337H1400.5V28.7322ZM1396.5 36.2345H1398.83V28.6331H1396.5V36.2345ZM1399.16 26.1545C1399.16 26.3501 1399.13 26.5437 1399.05 26.7242C1398.97 26.9046 1398.86 27.0683 1398.72 27.2057C1398.59 27.3446 1398.42 27.4546 1398.24 27.5295C1398.06 27.6043 1397.86 27.6426 1397.66 27.642C1397.27 27.6411 1396.89 27.4847 1396.6 27.2062C1396.46 27.0684 1396.35 26.9045 1396.28 26.724C1396.2 26.5436 1396.16 26.35 1396.16 26.1545C1396.16 25.7596 1396.32 25.3816 1396.6 25.1027C1396.89 24.8233 1397.27 24.6666 1397.66 24.667C1398.06 24.667 1398.44 24.8239 1398.72 25.1027C1399.01 25.3816 1399.16 25.7596 1399.16 26.1545Z" fill="#1A3760"/>
</svg>
