<svg width="24" height="25" viewBox="0 0 24 25" fill="none" xmlns="http://www.w3.org/2000/svg">
<path d="M16.5569 13.406L16.1019 13.859C16.1019 13.859 15.0189 14.935 12.0639 11.997C9.10886 9.05898 10.1919 7.98298 10.1919 7.98298L10.4779 7.69698C11.1849 6.99498 11.2519 5.86698 10.6349 5.04298L9.37486 3.35998C8.61086 2.33998 7.13586 2.20498 6.26086 3.07498L4.69086 4.63498C4.25786 5.06698 3.96786 5.62498 4.00286 6.24498C4.09286 7.83198 4.81086 11.245 8.81486 15.227C13.0619 19.449 17.0469 19.617 18.6759 19.465C19.1919 19.417 19.6399 19.155 20.0009 18.795L21.4209 17.383C22.3809 16.43 22.1109 14.795 20.8829 14.128L18.9729 13.089C18.1669 12.652 17.1869 12.78 16.5569 13.406Z" fill="#1A3760"/>
</svg>
