<svg width="85" height="36" viewBox="0 0 85 36" fill="none" xmlns="http://www.w3.org/2000/svg">
<rect y="0.5" width="85" height="35" rx="17.5" fill="#2A3D9A"/>
<path d="M23.4716 15.0625C23.4186 14.5663 23.1951 14.1799 22.8011 13.9034C22.411 13.6269 21.9034 13.4886 21.2784 13.4886C20.839 13.4886 20.4621 13.5549 20.1477 13.6875C19.8333 13.8201 19.5928 14 19.4261 14.2273C19.2595 14.4545 19.1742 14.714 19.1705 15.0057C19.1705 15.2481 19.2254 15.4583 19.3352 15.6364C19.4489 15.8144 19.6023 15.9659 19.7955 16.0909C19.9886 16.2121 20.2027 16.3144 20.4375 16.3977C20.6723 16.4811 20.9091 16.5511 21.1477 16.608L22.2386 16.8807C22.678 16.983 23.1004 17.1212 23.5057 17.2955C23.9148 17.4697 24.2803 17.6894 24.6023 17.9545C24.928 18.2197 25.1856 18.5398 25.375 18.9148C25.5644 19.2898 25.6591 19.7292 25.6591 20.233C25.6591 20.9148 25.4848 21.5152 25.1364 22.0341C24.7879 22.5492 24.2841 22.9527 23.625 23.2443C22.9697 23.5322 22.1761 23.6761 21.2443 23.6761C20.339 23.6761 19.553 23.536 18.8864 23.2557C18.2235 22.9754 17.7045 22.5663 17.3295 22.0284C16.9583 21.4905 16.7576 20.8352 16.7273 20.0625H18.8011C18.8314 20.4678 18.9564 20.8049 19.1761 21.0739C19.3958 21.3428 19.6818 21.5436 20.0341 21.6761C20.3902 21.8087 20.7879 21.875 21.2273 21.875C21.6856 21.875 22.0871 21.8068 22.4318 21.6705C22.7803 21.5303 23.053 21.3371 23.25 21.0909C23.447 20.8409 23.5473 20.5492 23.5511 20.2159C23.5473 19.9129 23.4583 19.6629 23.2841 19.4659C23.1098 19.2652 22.8655 19.0985 22.5511 18.9659C22.2405 18.8295 21.8769 18.7083 21.4602 18.6023L20.1364 18.2614C19.178 18.0152 18.4205 17.642 17.8636 17.142C17.3106 16.6383 17.0341 15.9697 17.0341 15.1364C17.0341 14.4508 17.2197 13.8504 17.5909 13.3352C17.9659 12.8201 18.4754 12.4205 19.1193 12.1364C19.7633 11.8485 20.4924 11.7045 21.3068 11.7045C22.1326 11.7045 22.8561 11.8485 23.4773 12.1364C24.1023 12.4205 24.5928 12.8163 24.9489 13.3239C25.3049 13.8277 25.4886 14.4072 25.5 15.0625H23.4716ZM27.4474 23.5V14.7727H29.5043V23.5H27.4474ZM28.4815 13.5341C28.1558 13.5341 27.8755 13.4261 27.6406 13.2102C27.4058 12.9905 27.2884 12.7273 27.2884 12.4205C27.2884 12.1098 27.4058 11.8466 27.6406 11.6307C27.8755 11.411 28.1558 11.3011 28.4815 11.3011C28.8111 11.3011 29.0914 11.411 29.3224 11.6307C29.5573 11.8466 29.6747 12.1098 29.6747 12.4205C29.6747 12.7273 29.5573 12.9905 29.3224 13.2102C29.0914 13.4261 28.8111 13.5341 28.4815 13.5341ZM35.4148 26.9545C34.6761 26.9545 34.0417 26.8542 33.5114 26.6534C32.9811 26.4564 32.5549 26.1913 32.233 25.858C31.911 25.5246 31.6875 25.1553 31.5625 24.75L33.4148 24.3011C33.4981 24.4716 33.6193 24.6402 33.7784 24.8068C33.9375 24.9773 34.1515 25.1174 34.4205 25.2273C34.6932 25.3409 35.036 25.3977 35.4489 25.3977C36.0322 25.3977 36.5152 25.2557 36.8977 24.9716C37.2803 24.6913 37.4716 24.2292 37.4716 23.5852V21.9318H37.3693C37.2633 22.1439 37.108 22.3617 36.9034 22.5852C36.7027 22.8087 36.4356 22.9962 36.1023 23.1477C35.7727 23.2992 35.358 23.375 34.858 23.375C34.1875 23.375 33.5795 23.2178 33.0341 22.9034C32.4924 22.5852 32.0606 22.1117 31.7386 21.483C31.4205 20.8504 31.2614 20.0587 31.2614 19.108C31.2614 18.1496 31.4205 17.3409 31.7386 16.6818C32.0606 16.0189 32.4943 15.517 33.0398 15.1761C33.5852 14.8314 34.1932 14.6591 34.8636 14.6591C35.375 14.6591 35.7955 14.7462 36.125 14.9205C36.4583 15.0909 36.7235 15.2973 36.9205 15.5398C37.1174 15.7784 37.267 16.0038 37.3693 16.2159H37.483V14.7727H39.5114V23.642C39.5114 24.3883 39.3333 25.0057 38.9773 25.4943C38.6212 25.983 38.1345 26.3485 37.517 26.5909C36.8996 26.8333 36.1989 26.9545 35.4148 26.9545ZM35.4318 21.7614C35.8674 21.7614 36.2386 21.6553 36.5455 21.4432C36.8523 21.2311 37.0852 20.9261 37.2443 20.5284C37.4034 20.1307 37.483 19.6534 37.483 19.0966C37.483 18.5473 37.4034 18.0663 37.2443 17.6534C37.089 17.2405 36.858 16.9205 36.5511 16.6932C36.2481 16.4621 35.875 16.3466 35.4318 16.3466C34.9735 16.3466 34.5909 16.4659 34.2841 16.7045C33.9773 16.9432 33.7462 17.2708 33.5909 17.6875C33.4356 18.1004 33.358 18.5701 33.358 19.0966C33.358 19.6307 33.4356 20.0985 33.5909 20.5C33.75 20.8977 33.983 21.2083 34.2898 21.4318C34.6004 21.6515 34.9811 21.7614 35.4318 21.7614ZM43.6761 18.3864V23.5H41.6193V14.7727H43.5852V16.2557H43.6875C43.8883 15.767 44.2083 15.3788 44.6477 15.0909C45.0909 14.803 45.6383 14.6591 46.2898 14.6591C46.892 14.6591 47.4167 14.7879 47.8636 15.0455C48.3144 15.303 48.6629 15.6761 48.9091 16.1648C49.1591 16.6534 49.2822 17.2462 49.2784 17.9432V23.5H47.2216V18.2614C47.2216 17.678 47.0701 17.2216 46.767 16.892C46.4678 16.5625 46.053 16.3977 45.5227 16.3977C45.1629 16.3977 44.8428 16.4773 44.5625 16.6364C44.286 16.7917 44.0682 17.017 43.9091 17.3125C43.7538 17.608 43.6761 17.9659 43.6761 18.3864ZM55.3381 23.5V14.7727H57.3949V23.5H55.3381ZM56.3722 13.5341C56.0464 13.5341 55.7661 13.4261 55.5312 13.2102C55.2964 12.9905 55.179 12.7273 55.179 12.4205C55.179 12.1098 55.2964 11.8466 55.5312 11.6307C55.7661 11.411 56.0464 11.3011 56.3722 11.3011C56.7017 11.3011 56.982 11.411 57.2131 11.6307C57.4479 11.8466 57.5653 12.1098 57.5653 12.4205C57.5653 12.7273 57.4479 12.9905 57.2131 13.2102C56.982 13.4261 56.7017 13.5341 56.3722 13.5341ZM61.5668 18.3864V23.5H59.5099V14.7727H61.4759V16.2557H61.5781C61.7789 15.767 62.099 15.3788 62.5384 15.0909C62.9815 14.803 63.5289 14.6591 64.1804 14.6591C64.7827 14.6591 65.3073 14.7879 65.7543 15.0455C66.205 15.303 66.5535 15.6761 66.7997 16.1648C67.0497 16.6534 67.1728 17.2462 67.169 17.9432V23.5H65.1122V18.2614C65.1122 17.678 64.9607 17.2216 64.6577 16.892C64.3584 16.5625 63.9437 16.3977 63.4134 16.3977C63.0535 16.3977 62.7334 16.4773 62.4531 16.6364C62.1766 16.7917 61.9588 17.017 61.7997 17.3125C61.6444 17.608 61.5668 17.9659 61.5668 18.3864Z" fill="white"/>
</svg>
