<svg width="195" height="55" viewBox="0 0 195 55" fill="none" xmlns="http://www.w3.org/2000/svg">
<rect x="0.5" y="0.0155029" width="194" height="54" rx="27" fill="#F2F7FD"/>
<path d="M25.2159 22.9125V20.9246H35.6605V22.9125H31.6143V34.0155H29.2621V22.9125H25.2159ZM39.0611 34.2137C38.4389 34.2137 37.8786 34.1029 37.38 33.8813C36.8857 33.6554 36.4936 33.323 36.2038 32.8841C35.9183 32.4452 35.7756 31.904 35.7756 31.2605C35.7756 30.7066 35.8778 30.2485 36.0824 29.8862C36.2869 29.524 36.5661 29.2343 36.9197 29.0169C37.2734 28.7996 37.6719 28.6355 38.1151 28.5247C38.5625 28.4097 39.0249 28.3266 39.5021 28.2754C40.0774 28.2158 40.544 28.1625 40.902 28.1156C41.2599 28.0645 41.5199 27.9878 41.6818 27.8855C41.848 27.779 41.9311 27.6149 41.9311 27.3933V27.355C41.9311 26.8735 41.7884 26.5006 41.5028 26.2364C41.2173 25.9722 40.8061 25.8401 40.2692 25.8401C39.7024 25.8401 39.2528 25.9637 38.9205 26.2108C38.5923 26.458 38.3707 26.7499 38.2557 27.0865L36.0952 26.7797C36.2656 26.1831 36.5469 25.6845 36.9389 25.284C37.331 24.8791 37.8104 24.5766 38.3771 24.3763C38.9439 24.1718 39.5703 24.0695 40.2564 24.0695C40.7294 24.0695 41.2003 24.1249 41.669 24.2357C42.1378 24.3465 42.5661 24.5297 42.9538 24.7854C43.3416 25.0368 43.6527 25.3798 43.8871 25.8145C44.1257 26.2492 44.245 26.7925 44.245 27.4445V34.0155H42.0206V32.6668H41.9439C41.8033 32.9395 41.6051 33.1952 41.3494 33.4338C41.098 33.6682 40.7805 33.8578 40.397 34.0027C40.0178 34.1433 39.5724 34.2137 39.0611 34.2137ZM39.6619 32.5134C40.1264 32.5134 40.5291 32.4218 40.87 32.2385C41.2109 32.051 41.473 31.8039 41.6562 31.497C41.8438 31.1902 41.9375 30.8557 41.9375 30.4935V29.3365C41.8651 29.3962 41.7415 29.4516 41.5668 29.5027C41.3963 29.5539 41.2045 29.5986 40.9915 29.637C40.7784 29.6753 40.5675 29.7094 40.3587 29.7392C40.1499 29.7691 39.9688 29.7946 39.8153 29.8159C39.4702 29.8628 39.1612 29.9395 38.8885 30.046C38.6158 30.1526 38.4006 30.3017 38.2429 30.4935C38.0852 30.681 38.0064 30.9239 38.0064 31.2222C38.0064 31.6483 38.1619 31.97 38.473 32.1874C38.7841 32.4047 39.1804 32.5134 39.6619 32.5134ZM48.8857 20.9246V34.0155H46.5717V20.9246H48.8857ZM53.3745 30.9345L53.3681 28.1412H53.7388L57.2672 24.1973H59.9711L55.6309 29.0297H55.1515L53.3745 30.9345ZM51.2651 34.0155V20.9246H53.579V34.0155H51.2651ZM57.427 34.0155L54.231 29.5475L55.7907 27.9175L60.1948 34.0155H57.427ZM70.8807 24.1973V25.9871H65.2365V24.1973H70.8807ZM66.63 21.845H68.9439V31.0624C68.9439 31.3735 68.9908 31.6121 69.0845 31.7783C69.1825 31.9402 69.3104 32.051 69.468 32.1107C69.6257 32.1703 69.8004 32.2002 69.9922 32.2002C70.1371 32.2002 70.2692 32.1895 70.3885 32.1682C70.5121 32.1469 70.6058 32.1277 70.6697 32.1107L71.0597 33.9196C70.9361 33.9622 70.7592 34.0091 70.5291 34.0602C70.3033 34.1114 70.0263 34.1412 69.6982 34.1497C69.1186 34.1668 68.5966 34.0794 68.1321 33.8877C67.6676 33.6916 67.299 33.3891 67.0263 32.98C66.7578 32.5709 66.6257 32.0595 66.63 31.4459V21.845ZM76.9931 34.2073C76.0343 34.2073 75.2033 33.9963 74.5002 33.5745C73.7971 33.1526 73.2516 32.5624 72.8638 31.8039C72.4803 31.0453 72.2885 30.159 72.2885 29.1448C72.2885 28.1306 72.4803 27.2421 72.8638 26.4793C73.2516 25.7165 73.7971 25.1242 74.5002 24.7023C75.2033 24.2804 76.0343 24.0695 76.9931 24.0695C77.9519 24.0695 78.7828 24.2804 79.486 24.7023C80.1891 25.1242 80.7324 25.7165 81.1159 26.4793C81.5037 27.2421 81.6976 28.1306 81.6976 29.1448C81.6976 30.159 81.5037 31.0453 81.1159 31.8039C80.7324 32.5624 80.1891 33.1526 79.486 33.5745C78.7828 33.9963 77.9519 34.2073 76.9931 34.2073ZM77.0059 32.3536C77.5257 32.3536 77.9604 32.2108 78.3098 31.9253C78.6593 31.6355 78.9192 31.2477 79.0897 30.762C79.2644 30.2762 79.3517 29.735 79.3517 29.1384C79.3517 28.5375 79.2644 27.9942 79.0897 27.5084C78.9192 27.0183 78.6593 26.6284 78.3098 26.3387C77.9604 26.0489 77.5257 25.904 77.0059 25.904C76.4732 25.904 76.03 26.0489 75.6763 26.3387C75.3269 26.6284 75.0648 27.0183 74.8901 27.5084C74.7196 27.9942 74.6344 28.5375 74.6344 29.1384C74.6344 29.735 74.7196 30.2762 74.8901 30.762C75.0648 31.2477 75.3269 31.6355 75.6763 31.9253C76.03 32.2108 76.4732 32.3536 77.0059 32.3536ZM90.9517 34.2137C90.3295 34.2137 89.7692 34.1029 89.2706 33.8813C88.7763 33.6554 88.3842 33.323 88.0945 32.8841C87.8089 32.4452 87.6662 31.904 87.6662 31.2605C87.6662 30.7066 87.7685 30.2485 87.973 29.8862C88.1776 29.524 88.4567 29.2343 88.8104 29.0169C89.1641 28.7996 89.5625 28.6355 90.0057 28.5247C90.4531 28.4097 90.9155 28.3266 91.3928 28.2754C91.968 28.2158 92.4347 28.1625 92.7926 28.1156C93.1506 28.0645 93.4105 27.9878 93.5724 27.8855C93.7386 27.779 93.8217 27.6149 93.8217 27.3933V27.355C93.8217 26.8735 93.679 26.5006 93.3935 26.2364C93.108 25.9722 92.6967 25.8401 92.1598 25.8401C91.593 25.8401 91.1435 25.9637 90.8111 26.2108C90.483 26.458 90.2614 26.7499 90.1463 27.0865L87.9858 26.7797C88.1563 26.1831 88.4375 25.6845 88.8295 25.284C89.2216 24.8791 89.701 24.5766 90.2678 24.3763C90.8345 24.1718 91.4609 24.0695 92.147 24.0695C92.62 24.0695 93.0909 24.1249 93.5597 24.2357C94.0284 24.3465 94.4567 24.5297 94.8445 24.7854C95.2322 25.0368 95.5433 25.3798 95.7777 25.8145C96.0163 26.2492 96.1357 26.7925 96.1357 27.4445V34.0155H93.9112V32.6668H93.8345C93.6939 32.9395 93.4957 33.1952 93.2401 33.4338C92.9886 33.6682 92.6712 33.8578 92.2876 34.0027C91.9084 34.1433 91.4631 34.2137 90.9517 34.2137ZM91.5526 32.5134C92.017 32.5134 92.4197 32.4218 92.7607 32.2385C93.1016 32.051 93.3636 31.8039 93.5469 31.497C93.7344 31.1902 93.8281 30.8557 93.8281 30.4935V29.3365C93.7557 29.3962 93.6321 29.4516 93.4574 29.5027C93.2869 29.5539 93.0952 29.5986 92.8821 29.637C92.669 29.6753 92.4581 29.7094 92.2493 29.7392C92.0405 29.7691 91.8594 29.7946 91.706 29.8159C91.3608 29.8628 91.0518 29.9395 90.7791 30.046C90.5064 30.1526 90.2912 30.3017 90.1335 30.4935C89.9759 30.681 89.897 30.9239 89.897 31.2222C89.897 31.6483 90.0526 31.97 90.3636 32.1874C90.6747 32.4047 91.071 32.5134 91.5526 32.5134ZM100.776 28.2627V34.0155H98.4624V24.1973H100.674V25.8656H100.789C101.015 25.3159 101.375 24.8791 101.869 24.5553C102.368 24.2314 102.984 24.0695 103.717 24.0695C104.394 24.0695 104.984 24.2144 105.487 24.5041C105.994 24.7939 106.386 25.2137 106.663 25.7634C106.945 26.3131 107.083 26.98 107.079 27.7641V34.0155H104.765V28.122C104.765 27.4658 104.594 26.9523 104.254 26.5816C103.917 26.2108 103.45 26.0254 102.854 26.0254C102.449 26.0254 102.089 26.1149 101.773 26.2939C101.462 26.4686 101.217 26.7222 101.038 27.0546C100.864 27.387 100.776 27.7897 100.776 28.2627ZM113.998 34.0155V20.9246H122.512V22.9125H116.37V26.4665H122.071V28.4544H116.37V32.0276H122.564V34.0155H113.998ZM126.722 24.1973L128.703 27.8216L130.717 24.1973H133.165L130.205 29.1064L133.216 34.0155H130.781L128.703 30.4807L126.645 34.0155H124.19L127.182 29.1064L124.267 24.1973H126.722ZM134.955 37.6973V24.1973H137.23V25.8209H137.364C137.484 25.5823 137.652 25.3287 137.869 25.0602C138.087 24.7875 138.381 24.5553 138.751 24.3635C139.122 24.1675 139.595 24.0695 140.17 24.0695C140.929 24.0695 141.613 24.2634 142.222 24.6512C142.836 25.0347 143.322 25.6036 143.68 26.3578C144.042 27.1078 144.223 28.0283 144.223 29.1192C144.223 30.1973 144.046 31.1135 143.692 31.8678C143.339 32.622 142.857 33.1973 142.248 33.5936C141.638 33.9899 140.948 34.1881 140.177 34.1881C139.614 34.1881 139.148 34.0943 138.777 33.9068C138.406 33.7193 138.108 33.4935 137.882 33.2293C137.661 32.9608 137.488 32.7073 137.364 32.4686H137.268V37.6973H134.955ZM137.224 29.1064C137.224 29.7414 137.313 30.2975 137.492 30.7747C137.675 31.252 137.938 31.6249 138.278 31.8933C138.624 32.1575 139.041 32.2897 139.531 32.2897C140.043 32.2897 140.471 32.1533 140.816 31.8806C141.161 31.6036 141.421 31.2264 141.596 30.7492C141.775 30.2676 141.864 29.72 141.864 29.1064C141.864 28.497 141.777 27.9558 141.602 27.4828C141.428 27.0098 141.168 26.6391 140.822 26.3706C140.477 26.1022 140.047 25.9679 139.531 25.9679C139.037 25.9679 138.617 26.0979 138.272 26.3578C137.927 26.6178 137.665 26.9821 137.486 27.4509C137.311 27.9196 137.224 28.4715 137.224 29.1064ZM150.551 34.2073C149.567 34.2073 148.717 34.0027 148.001 33.5936C147.289 33.1803 146.741 32.5965 146.358 31.8422C145.974 31.0837 145.783 30.1909 145.783 29.1639C145.783 28.154 145.974 27.2676 146.358 26.5048C146.746 25.7378 147.287 25.1412 147.982 24.7151C148.676 24.2847 149.492 24.0695 150.43 24.0695C151.035 24.0695 151.606 24.1675 152.143 24.3635C152.684 24.5553 153.161 24.8536 153.575 25.2584C153.992 25.6632 154.32 26.1789 154.559 26.8053C154.798 27.4274 154.917 28.1689 154.917 29.0297V29.7392H146.869V28.1796H152.699C152.695 27.7364 152.599 27.3422 152.411 26.997C152.224 26.6476 151.962 26.3727 151.625 26.1725C151.293 25.9722 150.905 25.872 150.462 25.872C149.989 25.872 149.573 25.9871 149.215 26.2172C148.857 26.4431 148.578 26.7414 148.378 27.1121C148.182 27.4786 148.082 27.8813 148.077 28.3202V29.6817C148.077 30.2527 148.182 30.7428 148.391 31.1519C148.599 31.5567 148.891 31.8678 149.266 32.0851C149.641 32.2982 150.08 32.4047 150.583 32.4047C150.92 32.4047 151.224 32.3578 151.497 32.2641C151.77 32.1661 152.006 32.0233 152.207 31.8358C152.407 31.6483 152.558 31.4161 152.661 31.1391L154.821 31.382C154.685 31.953 154.425 32.4516 154.041 32.8777C153.662 33.2996 153.176 33.6277 152.584 33.8621C151.991 34.0922 151.314 34.2073 150.551 34.2073ZM156.874 34.0155V24.1973H159.118V25.8337H159.22C159.399 25.2669 159.706 24.8301 160.141 24.5233C160.58 24.2122 161.08 24.0567 161.643 24.0567C161.771 24.0567 161.914 24.0631 162.071 24.0759C162.233 24.0844 162.367 24.0993 162.474 24.1206V26.2492C162.376 26.2151 162.22 26.1852 162.007 26.1597C161.798 26.1298 161.596 26.1149 161.4 26.1149C160.978 26.1149 160.599 26.2066 160.262 26.3898C159.93 26.5688 159.668 26.8181 159.476 27.1377C159.284 27.4573 159.188 27.8259 159.188 28.2435V34.0155H156.874ZM169.441 24.1973V25.9871H163.797V24.1973H169.441ZM165.191 21.845H167.504V31.0624C167.504 31.3735 167.551 31.6121 167.645 31.7783C167.743 31.9402 167.871 32.051 168.029 32.1107C168.186 32.1703 168.361 32.2002 168.553 32.2002C168.698 32.2002 168.83 32.1895 168.949 32.1682C169.073 32.1469 169.166 32.1277 169.23 32.1107L169.62 33.9196C169.497 33.9622 169.32 34.0091 169.09 34.0602C168.864 34.1114 168.587 34.1412 168.259 34.1497C167.679 34.1668 167.157 34.0794 166.693 33.8877C166.228 33.6916 165.86 33.3891 165.587 32.98C165.318 32.5709 165.186 32.0595 165.191 31.4459V21.845Z" fill="#1A3760"/>
</svg>
