<svg width="200" height="54" viewBox="0 0 200 54" fill="none" xmlns="http://www.w3.org/2000/svg">
<rect x="0.851562" width="199" height="54" rx="27" fill="#2A3D9A"/>
<path d="M37.348 25.326H34.9574C34.8892 24.9339 34.7635 24.5866 34.5803 24.2841C34.397 23.9773 34.169 23.7173 33.8963 23.5043C33.6236 23.2912 33.3125 23.1314 32.9631 23.0249C32.6179 22.9141 32.245 22.8587 31.8445 22.8587C31.1328 22.8587 30.5021 23.0376 29.9524 23.3956C29.4027 23.7493 28.9723 24.2692 28.6612 24.9553C28.3501 25.6371 28.1946 26.4702 28.1946 27.4545C28.1946 28.456 28.3501 29.2997 28.6612 29.9858C28.9766 30.6676 29.407 31.1832 29.9524 31.5327C30.5021 31.8778 31.1307 32.0504 31.8381 32.0504C32.2301 32.0504 32.5966 31.9993 32.9375 31.897C33.2827 31.7905 33.5916 31.6349 33.8643 31.4304C34.1413 31.2259 34.3736 30.9744 34.5611 30.6761C34.7528 30.3778 34.8849 30.0369 34.9574 29.6534L37.348 29.6662C37.2585 30.2884 37.0646 30.8722 36.7663 31.4176C36.4723 31.9631 36.0866 32.4446 35.6094 32.8622C35.1321 33.2756 34.5739 33.5994 33.9347 33.8338C33.2955 34.0639 32.5859 34.179 31.8061 34.179C30.6555 34.179 29.6286 33.9126 28.7251 33.38C27.8217 32.8473 27.1101 32.0781 26.5902 31.0724C26.0703 30.0668 25.8104 28.8608 25.8104 27.4545C25.8104 26.044 26.0724 24.8381 26.5966 23.8366C27.1207 22.831 27.8345 22.0618 28.7379 21.5291C29.6413 20.9964 30.6641 20.7301 31.8061 20.7301C32.5348 20.7301 33.2124 20.8324 33.8388 21.0369C34.4652 21.2415 35.0234 21.5419 35.5135 21.9382C36.0036 22.3303 36.4063 22.8118 36.7216 23.3828C37.0412 23.9496 37.25 24.5973 37.348 25.326ZM51.2172 27.4545C51.2172 28.8651 50.9529 30.0732 50.4245 31.0788C49.9004 32.0803 49.1845 32.8473 48.2768 33.38C47.3734 33.9126 46.3485 34.179 45.2022 34.179C44.0559 34.179 43.0289 33.9126 42.1213 33.38C41.2179 32.843 40.502 32.0739 39.9735 31.0724C39.4494 30.0668 39.1873 28.8608 39.1873 27.4545C39.1873 26.044 39.4494 24.8381 39.9735 23.8366C40.502 22.831 41.2179 22.0618 42.1213 21.5291C43.0289 20.9964 44.0559 20.7301 45.2022 20.7301C46.3485 20.7301 47.3734 20.9964 48.2768 21.5291C49.1845 22.0618 49.9004 22.831 50.4245 23.8366C50.9529 24.8381 51.2172 26.044 51.2172 27.4545ZM48.8329 27.4545C48.8329 26.4616 48.6774 25.6243 48.3663 24.9425C48.0595 24.2564 47.6333 23.7386 47.0879 23.3892C46.5424 23.0355 45.9139 22.8587 45.2022 22.8587C44.4906 22.8587 43.862 23.0355 43.3166 23.3892C42.7711 23.7386 42.3429 24.2564 42.0318 24.9425C41.725 25.6243 41.5716 26.4616 41.5716 27.4545C41.5716 28.4474 41.725 29.2869 42.0318 29.973C42.3429 30.6548 42.7711 31.1726 43.3166 31.5263C43.862 31.8757 44.4906 32.0504 45.2022 32.0504C45.9139 32.0504 46.5424 31.8757 47.0879 31.5263C47.6333 31.1726 48.0595 30.6548 48.3663 29.973C48.6774 29.2869 48.8329 28.4474 48.8329 27.4545ZM64.217 20.9091V34H62.1076L55.9393 25.0831H55.8306V34H53.4592V20.9091H55.5813L61.7433 29.8324H61.8583V20.9091H64.217ZM66.2257 22.897V20.9091H76.6703V22.897H72.6241V34H70.2718V22.897H66.2257ZM78.7828 34H76.2516L80.8603 20.9091H83.7878L88.4029 34H85.8716L82.3752 23.5938H82.2729L78.7828 34ZM78.8659 28.8672H85.7694V30.772H78.8659V28.8672ZM100.717 25.326H98.3265C98.2583 24.9339 98.1326 24.5866 97.9494 24.2841C97.7662 23.9773 97.5382 23.7173 97.2654 23.5043C96.9927 23.2912 96.6816 23.1314 96.3322 23.0249C95.987 22.9141 95.6142 22.8587 95.2136 22.8587C94.502 22.8587 93.8713 23.0376 93.3216 23.3956C92.7718 23.7493 92.3414 24.2692 92.0304 24.9553C91.7193 25.6371 91.5637 26.4702 91.5637 27.4545C91.5637 28.456 91.7193 29.2997 92.0304 29.9858C92.3457 30.6676 92.7761 31.1832 93.3216 31.5327C93.8713 31.8778 94.4998 32.0504 95.2072 32.0504C95.5993 32.0504 95.9657 31.9993 96.3066 31.897C96.6518 31.7905 96.9608 31.6349 97.2335 31.4304C97.5105 31.2259 97.7427 30.9744 97.9302 30.6761C98.122 30.3778 98.2541 30.0369 98.3265 29.6534L100.717 29.6662C100.628 30.2884 100.434 30.8722 100.135 31.4176C99.8414 31.9631 99.4558 32.4446 98.9785 32.8622C98.5012 33.2756 97.943 33.5994 97.3038 33.8338C96.6646 34.0639 95.9551 34.179 95.1752 34.179C94.0247 34.179 92.9977 33.9126 92.0943 33.38C91.1909 32.8473 90.4792 32.0781 89.9593 31.0724C89.4395 30.0668 89.1795 28.8608 89.1795 27.4545C89.1795 26.044 89.4416 24.8381 89.9657 23.8366C90.4899 22.831 91.2037 22.0618 92.1071 21.5291C93.0105 20.9964 94.0332 20.7301 95.1752 20.7301C95.9039 20.7301 96.5815 20.8324 97.2079 21.0369C97.8343 21.2415 98.3926 21.5419 98.8826 21.9382C99.3727 22.3303 99.7754 22.8118 100.091 23.3828C100.41 23.9496 100.619 24.5973 100.717 25.326ZM102.314 22.897V20.9091H112.758V22.897H108.712V34H106.36V22.897H102.314ZM126.351 24.5078C126.291 23.9496 126.04 23.5149 125.597 23.2038C125.158 22.8928 124.587 22.7372 123.884 22.7372C123.389 22.7372 122.965 22.8118 122.612 22.9609C122.258 23.1101 121.987 23.3125 121.8 23.5682C121.612 23.8239 121.516 24.1158 121.512 24.4439C121.512 24.7166 121.574 24.9531 121.697 25.1534C121.825 25.3537 121.998 25.5241 122.215 25.6648C122.433 25.8011 122.673 25.9162 122.938 26.0099C123.202 26.1037 123.468 26.1825 123.737 26.2464L124.964 26.5533C125.458 26.6683 125.933 26.8239 126.389 27.0199C126.849 27.2159 127.261 27.4631 127.623 27.7614C127.989 28.0597 128.279 28.4197 128.492 28.8416C128.705 29.2635 128.812 29.7578 128.812 30.3246C128.812 31.0916 128.616 31.767 128.224 32.3509C127.832 32.9304 127.265 33.3842 126.523 33.7124C125.786 34.0362 124.893 34.1982 123.845 34.1982C122.827 34.1982 121.942 34.0405 121.192 33.7251C120.447 33.4098 119.863 32.9496 119.441 32.3445C119.023 31.7393 118.798 31.0021 118.763 30.1328H121.097C121.131 30.5888 121.271 30.968 121.518 31.2706C121.766 31.5732 122.087 31.799 122.484 31.9482C122.884 32.0973 123.332 32.1719 123.826 32.1719C124.342 32.1719 124.793 32.0952 125.181 31.9418C125.573 31.7841 125.88 31.5668 126.102 31.2898C126.323 31.0085 126.436 30.6804 126.44 30.3054C126.436 29.9645 126.336 29.6832 126.14 29.4616C125.944 29.2358 125.669 29.0483 125.315 28.8991C124.966 28.7457 124.557 28.6094 124.088 28.4901L122.599 28.1065C121.521 27.8295 120.668 27.4098 120.042 26.8473C119.42 26.2805 119.109 25.5284 119.109 24.5909C119.109 23.8196 119.317 23.1442 119.735 22.5646C120.157 21.9851 120.73 21.5355 121.455 21.2159C122.179 20.892 122.999 20.7301 123.915 20.7301C124.844 20.7301 125.658 20.892 126.357 21.2159C127.06 21.5355 127.612 21.9808 128.013 22.5518C128.413 23.1186 128.62 23.7706 128.633 24.5078H126.351ZM132.396 34H129.865L134.474 20.9091H137.401L142.016 34H139.485L135.988 23.5938H135.886L132.396 34ZM132.479 28.8672H139.383V30.772H132.479V28.8672ZM143.74 34V20.9091H146.112V32.0121H151.877V34H143.74ZM153.936 34V20.9091H162.45V22.897H156.307V26.451H162.009V28.4389H156.307V32.0121H162.501V34H153.936ZM171.984 24.5078C171.924 23.9496 171.673 23.5149 171.229 23.2038C170.79 22.8928 170.219 22.7372 169.516 22.7372C169.022 22.7372 168.598 22.8118 168.244 22.9609C167.891 23.1101 167.62 23.3125 167.433 23.5682C167.245 23.8239 167.149 24.1158 167.145 24.4439C167.145 24.7166 167.207 24.9531 167.33 25.1534C167.458 25.3537 167.631 25.5241 167.848 25.6648C168.065 25.8011 168.306 25.9162 168.57 26.0099C168.835 26.1037 169.101 26.1825 169.369 26.2464L170.597 26.5533C171.091 26.6683 171.566 26.8239 172.022 27.0199C172.482 27.2159 172.893 27.4631 173.256 27.7614C173.622 28.0597 173.912 28.4197 174.125 28.8416C174.338 29.2635 174.445 29.7578 174.445 30.3246C174.445 31.0916 174.249 31.767 173.857 32.3509C173.464 32.9304 172.898 33.3842 172.156 33.7124C171.419 34.0362 170.526 34.1982 169.478 34.1982C168.46 34.1982 167.575 34.0405 166.825 33.7251C166.08 33.4098 165.496 32.9496 165.074 32.3445C164.656 31.7393 164.43 31.0021 164.396 30.1328H166.729C166.763 30.5888 166.904 30.968 167.151 31.2706C167.398 31.5732 167.72 31.799 168.116 31.9482C168.517 32.0973 168.964 32.1719 169.459 32.1719C169.974 32.1719 170.426 32.0952 170.814 31.9418C171.206 31.7841 171.513 31.5668 171.734 31.2898C171.956 31.0085 172.069 30.6804 172.073 30.3054C172.069 29.9645 171.969 29.6832 171.773 29.4616C171.577 29.2358 171.302 29.0483 170.948 28.8991C170.599 28.7457 170.19 28.6094 169.721 28.4901L168.232 28.1065C167.153 27.8295 166.301 27.4098 165.675 26.8473C165.053 26.2805 164.741 25.5284 164.741 24.5909C164.741 23.8196 164.95 23.1442 165.368 22.5646C165.79 21.9851 166.363 21.5355 167.087 21.2159C167.812 20.892 168.632 20.7301 169.548 20.7301C170.477 20.7301 171.291 20.892 171.99 21.2159C172.693 21.5355 173.245 21.9808 173.646 22.5518C174.046 23.1186 174.253 23.7706 174.266 24.5078H171.984Z" fill="white"/>
</svg>
