<svg width="150" height="55" viewBox="0 0 150 55" fill="none" xmlns="http://www.w3.org/2000/svg">
<rect x="0.5" y="0.0155029" width="149" height="54" rx="27" fill="#2A3D9A"/>
<path d="M34.5611 25.105C34.4545 24.7598 34.3075 24.4509 34.12 24.1781C33.9368 23.9012 33.7152 23.6647 33.4553 23.4686C33.1996 23.2726 32.9055 23.1256 32.5732 23.0276C32.2408 22.9253 31.8786 22.8742 31.4865 22.8742C30.7834 22.8742 30.157 23.051 29.6072 23.4047C29.0575 23.7584 28.625 24.2783 28.3097 24.9644C27.9986 25.6462 27.843 26.4772 27.843 27.4573C27.843 28.4459 27.9986 29.2833 28.3097 29.9693C28.6207 30.6554 29.0533 31.1774 29.6072 31.5354C30.1612 31.8891 30.8047 32.0659 31.5376 32.0659C32.2024 32.0659 32.7777 31.9381 33.2635 31.6824C33.7536 31.4267 34.1307 31.0645 34.3949 30.5958C34.6591 30.1227 34.7912 29.5688 34.7912 28.9338L35.3281 29.0169H31.7741V27.1632H37.0859V28.7357C37.0859 29.8564 36.8473 30.8259 36.37 31.6441C35.8928 32.4622 35.2365 33.0929 34.4013 33.5361C33.5661 33.975 32.6072 34.1945 31.5249 34.1945C30.3189 34.1945 29.2599 33.9239 28.348 33.3827C27.4403 32.8372 26.7308 32.0638 26.2195 31.0624C25.7124 30.0567 25.4588 28.8635 25.4588 27.4828C25.4588 26.426 25.608 25.4821 25.9062 24.6512C26.2088 23.8202 26.6307 23.1149 27.1719 22.5354C27.7131 21.9516 28.348 21.5084 29.0767 21.2058C29.8054 20.899 30.598 20.7456 31.4545 20.7456C32.179 20.7456 32.8544 20.8522 33.4808 21.0652C34.1072 21.274 34.6634 21.5723 35.1491 21.9601C35.6392 22.3479 36.0419 22.8081 36.3572 23.3408C36.6726 23.8735 36.8793 24.4615 36.9773 25.105H34.5611ZM43.6234 34.2073C42.639 34.2073 41.7889 34.0027 41.073 33.5936C40.3613 33.1803 39.8137 32.5965 39.4302 31.8422C39.0467 31.0837 38.8549 30.1909 38.8549 29.1639C38.8549 28.154 39.0467 27.2676 39.4302 26.5048C39.818 25.7378 40.3592 25.1412 41.0538 24.7151C41.7484 24.2847 42.5645 24.0695 43.502 24.0695C44.1071 24.0695 44.6781 24.1675 45.215 24.3635C45.7562 24.5553 46.2335 24.8536 46.6468 25.2584C47.0645 25.6632 47.3926 26.1789 47.6312 26.8053C47.8699 27.4274 47.9892 28.1689 47.9892 29.0297V29.7392H39.9416V28.1796H45.7711C45.7669 27.7364 45.671 27.3422 45.4835 26.997C45.296 26.6476 45.0339 26.3727 44.6973 26.1725C44.3649 25.9722 43.9771 25.872 43.5339 25.872C43.0609 25.872 42.6454 25.9871 42.2875 26.2172C41.9295 26.4431 41.6504 26.7414 41.4501 27.1121C41.2541 27.4786 41.1539 27.8813 41.1497 28.3202V29.6817C41.1497 30.2527 41.2541 30.7428 41.4629 31.1519C41.6717 31.5567 41.9636 31.8678 42.3386 32.0851C42.7136 32.2982 43.1525 32.4047 43.6554 32.4047C43.992 32.4047 44.2967 32.3578 44.5694 32.2641C44.8422 32.1661 45.0787 32.0233 45.2789 31.8358C45.4792 31.6483 45.6305 31.4161 45.7328 31.1391L47.8933 31.382C47.7569 31.953 47.497 32.4516 47.1135 32.8777C46.7342 33.2996 46.2484 33.6277 45.6561 33.8621C45.0637 34.0922 44.3862 34.2073 43.6234 34.2073ZM54.8494 24.1973V25.9871H49.2053V24.1973H54.8494ZM50.5987 21.845H52.9126V31.0624C52.9126 31.3735 52.9595 31.6121 53.0533 31.7783C53.1513 31.9402 53.2791 32.051 53.4368 32.1107C53.5945 32.1703 53.7692 32.2002 53.9609 32.2002C54.1058 32.2002 54.2379 32.1895 54.3572 32.1682C54.4808 32.1469 54.5746 32.1277 54.6385 32.1107L55.0284 33.9196C54.9048 33.9622 54.728 34.0091 54.4979 34.0602C54.272 34.1114 53.995 34.1412 53.6669 34.1497C53.0874 34.1668 52.5653 34.0794 52.1009 33.8877C51.6364 33.6916 51.2678 33.3891 50.995 32.98C50.7266 32.5709 50.5945 32.0595 50.5987 31.4459V21.845ZM68.4661 24.5233C68.4064 23.9651 68.155 23.5304 67.7118 23.2193C67.2729 22.9083 66.7019 22.7527 65.9988 22.7527C65.5044 22.7527 65.0804 22.8273 64.7267 22.9764C64.373 23.1256 64.1025 23.328 63.915 23.5837C63.7275 23.8394 63.6316 24.1313 63.6273 24.4594C63.6273 24.7321 63.6891 24.9686 63.8127 25.1689C63.9405 25.3692 64.1131 25.5397 64.3304 25.6803C64.5478 25.8166 64.7885 25.9317 65.0527 26.0254C65.3169 26.1192 65.5833 26.198 65.8517 26.262L67.079 26.5688C67.5733 26.6838 68.0485 26.8394 68.5044 27.0354C68.9647 27.2314 69.3759 27.4786 69.7381 27.7769C70.1046 28.0752 70.3944 28.4352 70.6074 28.8571C70.8205 29.279 70.927 29.7733 70.927 30.3401C70.927 31.1071 70.731 31.7825 70.339 32.3664C69.9469 32.9459 69.3801 33.3997 68.6387 33.7279C67.9015 34.0517 67.0087 34.2137 65.9604 34.2137C64.9419 34.2137 64.0577 34.056 63.3077 33.7406C62.562 33.4253 61.9782 32.9651 61.5563 32.36C61.1387 31.7548 60.9128 31.0176 60.8787 30.1483H63.2118C63.2459 30.6043 63.3865 30.9835 63.6337 31.2861C63.8809 31.5887 64.2026 31.8145 64.5989 31.9637C64.9995 32.1128 65.4469 32.1874 65.9412 32.1874C66.4569 32.1874 66.9086 32.1107 67.2963 31.9573C67.6884 31.7996 67.9952 31.5823 68.2168 31.3053C68.4384 31.024 68.5513 30.6959 68.5556 30.3209C68.5513 29.98 68.4512 29.6987 68.2551 29.4772C68.0591 29.2513 67.7843 29.0638 67.4306 28.9147C67.0811 28.7612 66.6721 28.6249 66.2033 28.5056L64.714 28.122C63.6358 27.845 62.7836 27.4253 62.1571 26.8628C61.535 26.296 61.2239 25.5439 61.2239 24.6064C61.2239 23.8351 61.4327 23.1597 61.8503 22.5801C62.2722 22.0006 62.8453 21.551 63.5698 21.2314C64.2942 20.9075 65.1145 20.7456 66.0307 20.7456C66.9597 20.7456 67.7736 20.9075 68.4725 21.2314C69.1756 21.551 69.7275 21.9963 70.128 22.5673C70.5286 23.1341 70.7353 23.7861 70.748 24.5233H68.4661ZM77.8416 24.1973V25.9871H72.1974V24.1973H77.8416ZM73.5909 21.845H75.9048V31.0624C75.9048 31.3735 75.9517 31.6121 76.0455 31.7783C76.1435 31.9402 76.2713 32.051 76.429 32.1107C76.5866 32.1703 76.7614 32.2002 76.9531 32.2002C77.098 32.2002 77.2301 32.1895 77.3494 32.1682C77.473 32.1469 77.5668 32.1277 77.6307 32.1107L78.0206 33.9196C77.897 33.9622 77.7202 34.0091 77.4901 34.0602C77.2642 34.1114 76.9872 34.1412 76.6591 34.1497C76.0795 34.1668 75.5575 34.0794 75.093 33.8877C74.6286 33.6916 74.2599 33.3891 73.9872 32.98C73.7188 32.5709 73.5866 32.0595 73.5909 31.4459V21.845ZM82.6021 34.2137C81.9799 34.2137 81.4196 34.1029 80.921 33.8813C80.4267 33.6554 80.0346 33.323 79.7449 32.8841C79.4593 32.4452 79.3166 31.904 79.3166 31.2605C79.3166 30.7066 79.4189 30.2485 79.6234 29.8862C79.8279 29.524 80.1071 29.2343 80.4608 29.0169C80.8145 28.7996 81.2129 28.6355 81.6561 28.5247C82.1035 28.4097 82.5659 28.3266 83.0431 28.2754C83.6184 28.2158 84.085 28.1625 84.443 28.1156C84.801 28.0645 85.0609 27.9878 85.2228 27.8855C85.389 27.779 85.4721 27.6149 85.4721 27.3933V27.355C85.4721 26.8735 85.3294 26.5006 85.0439 26.2364C84.7583 25.9722 84.3471 25.8401 83.8102 25.8401C83.2434 25.8401 82.7939 25.9637 82.4615 26.2108C82.1333 26.458 81.9118 26.7499 81.7967 27.0865L79.6362 26.7797C79.8066 26.1831 80.0879 25.6845 80.4799 25.284C80.872 24.8791 81.3514 24.5766 81.9181 24.3763C82.4849 24.1718 83.1113 24.0695 83.7974 24.0695C84.2704 24.0695 84.7413 24.1249 85.2101 24.2357C85.6788 24.3465 86.1071 24.5297 86.4949 24.7854C86.8826 25.0368 87.1937 25.3798 87.4281 25.8145C87.6667 26.2492 87.786 26.7925 87.786 27.4445V34.0155H85.5616V32.6668H85.4849C85.3443 32.9395 85.1461 33.1952 84.8904 33.4338C84.639 33.6682 84.3216 33.8578 83.938 34.0027C83.5588 34.1433 83.1135 34.2137 82.6021 34.2137ZM83.2029 32.5134C83.6674 32.5134 84.0701 32.4218 84.411 32.2385C84.752 32.051 85.014 31.8039 85.1973 31.497C85.3848 31.1902 85.4785 30.8557 85.4785 30.4935V29.3365C85.4061 29.3962 85.2825 29.4516 85.1078 29.5027C84.9373 29.5539 84.7456 29.5986 84.5325 29.637C84.3194 29.6753 84.1085 29.7094 83.8997 29.7392C83.6909 29.7691 83.5098 29.7946 83.3564 29.8159C83.0112 29.8628 82.7022 29.9395 82.4295 30.046C82.1568 30.1526 81.9416 30.3017 81.7839 30.4935C81.6262 30.681 81.5474 30.9239 81.5474 31.2222C81.5474 31.6483 81.7029 31.97 82.014 32.1874C82.3251 32.4047 82.7214 32.5134 83.2029 32.5134ZM90.1127 34.0155V24.1973H92.3564V25.8337H92.4586C92.6376 25.2669 92.9444 24.8301 93.3791 24.5233C93.818 24.2122 94.3187 24.0567 94.8812 24.0567C95.0091 24.0567 95.1518 24.0631 95.3095 24.0759C95.4714 24.0844 95.6056 24.0993 95.7122 24.1206V26.2492C95.6142 26.2151 95.4586 26.1852 95.2456 26.1597C95.0368 26.1298 94.8343 26.1149 94.6383 26.1149C94.2164 26.1149 93.8372 26.2066 93.5005 26.3898C93.1681 26.5688 92.9061 26.8181 92.7143 27.1377C92.5225 27.4573 92.4267 27.8259 92.4267 28.2435V34.0155H90.1127ZM102.68 24.1973V25.9871H97.0353V24.1973H102.68ZM98.4288 21.845H100.743V31.0624C100.743 31.3735 100.79 31.6121 100.883 31.7783C100.981 31.9402 101.109 32.051 101.267 32.1107C101.425 32.1703 101.599 32.2002 101.791 32.2002C101.936 32.2002 102.068 32.1895 102.187 32.1682C102.311 32.1469 102.405 32.1277 102.469 32.1107L102.858 33.9196C102.735 33.9622 102.558 34.0091 102.328 34.0602C102.102 34.1114 101.825 34.1412 101.497 34.1497C100.917 34.1668 100.395 34.0794 99.9309 33.8877C99.4664 33.6916 99.0978 33.3891 98.8251 32.98C98.5566 32.5709 98.4245 32.0595 98.4288 31.4459V21.845ZM108.856 34.2073C107.871 34.2073 107.021 34.0027 106.305 33.5936C105.594 33.1803 105.046 32.5965 104.663 31.8422C104.279 31.0837 104.087 30.1909 104.087 29.1639C104.087 28.154 104.279 27.2676 104.663 26.5048C105.05 25.7378 105.592 25.1412 106.286 24.7151C106.981 24.2847 107.797 24.0695 108.734 24.0695C109.339 24.0695 109.911 24.1675 110.447 24.3635C110.989 24.5553 111.466 24.8536 111.879 25.2584C112.297 25.6632 112.625 26.1789 112.864 26.8053C113.102 27.4274 113.222 28.1689 113.222 29.0297V29.7392H105.174V28.1796H111.004C110.999 27.7364 110.903 27.3422 110.716 26.997C110.528 26.6476 110.266 26.3727 109.93 26.1725C109.597 25.9722 109.21 25.872 108.766 25.872C108.293 25.872 107.878 25.9871 107.52 26.2172C107.162 26.4431 106.883 26.7414 106.683 27.1121C106.487 27.4786 106.386 27.8813 106.382 28.3202V29.6817C106.382 30.2527 106.487 30.7428 106.695 31.1519C106.904 31.5567 107.196 31.8678 107.571 32.0851C107.946 32.2982 108.385 32.4047 108.888 32.4047C109.224 32.4047 109.529 32.3578 109.802 32.2641C110.075 32.1661 110.311 32.0233 110.511 31.8358C110.712 31.6483 110.863 31.4161 110.965 31.1391L113.126 31.382C112.989 31.953 112.729 32.4516 112.346 32.8777C111.967 33.2996 111.481 33.6277 110.888 33.8621C110.296 34.0922 109.619 34.2073 108.856 34.2073ZM118.823 34.1881C118.051 34.1881 117.361 33.9899 116.752 33.5936C116.142 33.1973 115.661 32.622 115.307 31.8678C114.953 31.1135 114.776 30.1973 114.776 29.1192C114.776 28.0283 114.955 27.1078 115.313 26.3578C115.676 25.6036 116.164 25.0347 116.777 24.6512C117.391 24.2634 118.075 24.0695 118.829 24.0695C119.404 24.0695 119.877 24.1675 120.248 24.3635C120.619 24.5553 120.913 24.7875 121.13 25.0602C121.347 25.3287 121.516 25.5823 121.635 25.8209H121.731V20.9246H124.051V34.0155H121.776V32.4686H121.635C121.516 32.7073 121.343 32.9608 121.117 33.2293C120.892 33.4935 120.593 33.7193 120.222 33.9068C119.852 34.0943 119.385 34.1881 118.823 34.1881ZM119.468 32.2897C119.958 32.2897 120.376 32.1575 120.721 31.8933C121.066 31.6249 121.328 31.252 121.507 30.7747C121.686 30.2975 121.776 29.7414 121.776 29.1064C121.776 28.4715 121.686 27.9196 121.507 27.4509C121.333 26.9821 121.073 26.6178 120.727 26.3578C120.387 26.0979 119.967 25.9679 119.468 25.9679C118.953 25.9679 118.522 26.1022 118.177 26.3706C117.832 26.6391 117.572 27.0098 117.397 27.4828C117.222 27.9558 117.135 28.497 117.135 29.1064C117.135 29.72 117.222 30.2676 117.397 30.7492C117.576 31.2264 117.838 31.6036 118.183 31.8806C118.533 32.1533 118.961 32.2897 119.468 32.2897Z" fill="white"/>
</svg>
