<svg width="324" height="342" viewBox="0 0 324 342" fill="none" xmlns="http://www.w3.org/2000/svg">
<g clip-path="url(#clip0_688_2831)">
<path d="M32.208 335.156C29.808 332.156 29.308 328.656 29.308 324.856C29.308 268.556 29.308 212.156 29.308 155.856C29.308 153.956 30.108 151.956 28.208 149.956C26.908 151.256 27.408 152.756 27.408 154.056C27.408 165.556 27.308 177.056 27.408 188.556C27.508 191.956 26.608 192.756 23.508 191.356C17.908 188.756 12.808 185.356 11.208 179.156C6.90799 162.556 7.80799 146.456 18.308 132.156C24.108 124.356 32.008 120.456 41.908 120.656C53.408 120.856 65.008 121.456 76.408 120.556C90.208 119.456 98.708 126.356 105.508 136.856C107.608 140.056 109.808 143.256 111.208 146.756C112.908 151.156 115.508 152.756 119.708 150.856C121.808 149.956 126.908 151.756 124.608 145.956C124.008 144.456 126.108 143.656 127.408 142.956C137.208 137.756 147.008 132.556 156.808 127.256C159.308 125.956 161.108 125.956 162.508 128.756C164.708 133.256 167.008 137.656 169.508 141.956C171.108 144.856 170.408 146.556 167.608 147.956C162.908 150.356 158.208 152.856 153.508 155.356C149.808 157.356 145.808 158.856 143.908 163.356C142.908 165.756 140.008 166.356 137.608 166.856C128.808 168.556 120.008 170.256 111.208 171.856C105.308 172.956 101.808 170.956 99.208 165.456C97.708 161.856 95.708 158.456 93.308 155.256V161.256C93.308 215.956 93.308 270.556 93.308 325.256C93.308 333.156 89.308 338.856 82.508 340.656C76.008 342.356 69.308 339.056 65.408 332.456C64.008 329.956 64.008 327.356 64.008 324.756C64.008 291.256 64.008 257.756 64.008 224.256C64.008 222.756 65.308 220.456 62.308 219.956C59.308 219.456 58.408 220.756 58.408 223.756C58.508 244.756 58.508 265.756 58.508 286.756C58.508 299.956 58.508 313.056 58.508 326.256C58.508 334.856 53.108 340.456 44.408 340.956C45.708 336.556 43.808 333.656 39.508 333.056C36.708 332.556 34.608 334.356 32.208 335.156ZM162.608 145.556C160.708 141.956 158.608 138.356 157.008 134.656C155.808 131.956 154.408 131.756 152.108 133.056C146.308 136.256 140.408 139.256 134.708 142.456C133.608 143.056 131.508 142.956 132.108 145.156C132.708 147.056 133.708 148.156 136.108 147.756C139.108 147.256 142.408 148.156 143.508 150.756C146.108 157.056 149.308 154.256 152.808 152.156C155.308 150.656 158.108 149.456 160.708 148.056C161.608 147.556 163.008 147.256 162.608 145.556ZM74.508 322.256C75.908 323.456 75.108 324.856 75.708 325.756C76.508 327.056 77.908 327.256 78.208 325.756C78.608 323.556 79.508 320.856 77.008 319.456C74.708 318.156 72.508 319.156 71.008 321.256C68.608 324.756 69.308 327.756 72.408 330.456C75.508 333.156 78.708 334.256 82.208 331.256C83.108 330.456 85.408 329.456 84.108 327.756C82.808 326.056 81.508 327.956 80.508 328.756C78.508 330.356 76.508 330.556 74.708 328.656C72.908 326.756 71.508 324.556 74.508 322.256Z" fill="#2A3D9A"/>
<path d="M146.707 339.156C135.707 339.156 124.707 339.056 113.707 339.256C109.507 339.356 108.207 337.656 108.207 333.656C108.307 315.656 108.307 297.656 108.207 279.656C108.207 275.456 109.307 273.156 113.907 273.756C114.407 273.756 114.907 273.756 115.407 273.756C118.907 273.656 123.107 274.656 125.607 273.056C128.107 271.456 126.407 266.856 126.407 263.656C126.407 261.056 127.507 260.756 129.707 260.756C141.007 260.856 152.307 260.856 163.707 260.756C166.007 260.756 166.407 261.356 166.507 263.556C166.707 266.956 164.707 271.456 167.607 273.356C169.907 274.956 174.007 273.856 177.407 273.856C184.707 273.856 184.707 273.856 184.707 280.956C184.707 298.456 184.607 315.956 184.807 333.456C184.907 338.056 183.307 339.556 178.807 339.456C168.007 338.956 157.407 339.156 146.707 339.156ZM146.307 273.756C150.807 273.756 155.307 273.656 159.807 273.756C164.307 273.856 162.407 270.556 162.607 268.456C162.807 266.356 163.607 264.056 159.807 264.156C151.007 264.356 142.207 264.356 133.307 264.156C129.007 264.056 130.507 266.956 130.507 268.956C130.507 270.956 129.107 273.956 133.307 273.756C137.507 273.556 142.007 273.756 146.307 273.756ZM112.007 293.656C113.407 295.756 114.807 295.156 116.007 295.156C123.007 295.156 130.007 295.156 137.007 295.156C139.307 295.156 141.507 294.856 141.207 298.356C141.007 300.656 142.907 300.156 144.007 299.956C146.607 299.456 151.107 301.556 151.507 298.756C152.207 293.956 155.007 295.256 157.507 295.156C164.207 295.056 170.807 295.156 177.507 295.056C178.507 295.056 179.907 295.756 180.407 293.556H112.007V293.656Z" fill="#24272D" fill-opacity="0.7"/>
<path d="M207.107 217.056C172.307 217.056 137.507 216.956 102.707 217.156C98.7074 217.156 97.7074 216.056 97.8074 212.156C98.0074 201.556 97.9074 201.556 108.507 201.556C175.707 201.556 243.007 201.556 310.307 201.456C314.607 201.456 316.207 202.356 316.107 206.956C315.907 216.956 316.207 217.056 306.007 217.056H207.107Z" fill="#24272D"/>
<path d="M172.906 132.656C175.706 127.056 178.406 121.356 181.206 115.756C182.306 113.656 182.406 112.156 180.906 109.956C171.006 95.3562 170.306 79.9562 179.206 64.9562C188.306 49.5562 202.706 43.3562 220.206 45.0562C237.306 46.7562 252.206 60.9562 255.306 77.8562C258.706 96.1562 250.006 114.756 234.006 122.856C220.206 129.856 206.506 129.356 193.106 121.556C190.806 120.156 189.606 120.356 187.606 122.056C183.006 125.956 178.206 129.456 173.506 133.056L172.906 132.656ZM213.306 120.056C231.306 119.956 245.806 105.356 245.806 87.3562C245.706 69.3562 231.106 54.8562 213.106 54.8562C195.206 54.9562 180.606 69.4562 180.606 87.4562C180.506 105.256 195.306 120.056 213.306 120.056Z" fill="#2A3D9A"/>
<path d="M260.707 139.356C260.607 156.356 249.607 167.356 235.407 167.456C221.307 167.656 209.807 156.356 209.607 142.356C209.607 142.256 209.607 142.156 209.607 142.056C209.707 139.556 210.107 137.156 210.807 134.756C211.207 132.956 212.207 132.056 214.307 132.156C225.807 132.456 235.807 128.456 244.507 121.156C246.407 119.556 247.807 119.656 249.707 121.056C256.807 126.156 260.507 133.256 260.707 139.356Z" fill="#24272D"/>
<path d="M44.008 83.4562C44.908 81.3562 46.608 80.0562 48.508 78.9562C50.608 79.1562 51.208 80.8562 51.308 82.4562C51.508 86.2562 52.008 90.0562 50.708 93.7562C49.408 98.0562 47.808 102.256 45.908 106.256C45.408 107.256 44.908 108.656 46.208 109.356C47.208 109.956 48.008 108.856 48.708 108.156C51.608 105.656 53.908 102.556 55.308 98.9562C58.508 91.2562 59.208 82.7562 57.308 74.6562C67.808 71.7562 79.208 75.4562 85.308 83.6562C92.308 93.2562 92.908 105.156 87.008 114.356C85.408 116.856 83.708 117.956 80.608 117.856C70.608 117.656 60.708 117.756 50.708 117.756C42.708 117.756 38.508 113.156 38.708 104.856C44.808 101.256 47.308 90.7562 44.008 83.4562Z" fill="#2A3D9A"/>
<path d="M227.007 196.856C227.607 196.356 227.707 196.256 227.807 196.156C233.007 185.856 233.007 185.856 225.207 177.456C224.307 176.556 222.907 175.956 222.907 173.956C231.007 172.356 239.207 172.656 248.407 173.856C245.607 177.056 243.507 179.956 240.907 182.356C238.007 184.956 237.907 187.456 239.707 190.556C240.907 192.556 241.807 194.656 243.107 197.356C247.107 191.156 251.207 185.256 254.807 179.256C256.507 176.456 258.207 176.056 261.107 177.456C268.907 181.256 277.507 189.456 282.007 197.856H188.107C194.007 188.256 201.407 180.856 211.607 176.456C213.907 175.456 214.107 177.456 214.807 178.556C218.907 184.556 222.907 190.656 227.007 196.856Z" fill="#24272D"/>
<path d="M153.208 157.956C162.608 152.456 170.508 147.456 180.708 148.956C184.608 149.456 186.508 150.456 186.408 154.556C186.308 165.056 186.308 175.556 186.408 186.056C186.408 189.556 185.008 191.156 181.308 191.156C169.508 191.056 157.708 191.056 145.808 191.156C142.408 191.156 140.908 189.956 141.008 186.556C141.108 184.056 141.008 181.556 141.008 179.056C140.908 174.456 142.108 171.356 145.508 167.256C150.508 161.356 155.608 161.856 161.508 161.756C165.808 161.756 170.208 161.756 174.508 161.656C176.008 161.656 178.308 162.356 178.208 159.656C178.108 157.656 176.108 157.956 174.708 157.856C168.108 157.956 161.508 157.956 153.208 157.956ZM163.608 171.056C167.608 171.056 171.508 171.056 175.508 171.056C176.708 171.056 178.508 171.456 178.308 169.356C178.208 167.656 176.808 167.356 175.408 167.356C167.508 167.356 159.508 167.356 151.608 167.356C150.208 167.356 148.808 167.956 148.908 169.656C149.008 171.156 150.508 171.056 151.608 171.056H163.608ZM163.808 177.056H151.808C150.408 177.056 148.908 177.156 149.008 178.956C149.008 180.356 150.408 180.656 151.608 180.656C159.608 180.656 167.608 180.756 175.608 180.656C176.908 180.656 178.608 180.656 178.408 178.756C178.208 176.856 176.708 177.056 175.308 177.056H163.808Z" fill="#24272D"/>
<path d="M13.0075 217.056C0.707504 216.956 0.807505 216.956 1.4075 204.656C1.5075 202.256 2.1075 201.456 4.5075 201.556C10.3075 201.656 16.1075 201.556 22.0075 201.556C24.0075 201.556 24.7075 202.156 24.9075 204.356C25.6075 217.156 25.7075 217.156 13.0075 217.056Z" fill="#24272D"/>
<path d="M57.3079 74.7562C59.2079 82.8562 58.5079 91.3562 55.3079 99.0562C53.9079 102.656 51.6079 105.756 48.7079 108.256C48.0079 108.856 47.2079 110.056 46.2079 109.456C44.9079 108.756 45.4079 107.356 45.9079 106.356C47.8079 102.356 49.4079 98.1562 50.7079 93.8562C51.9079 90.0562 51.5079 86.3562 51.3079 82.5562C51.2079 80.9562 50.6079 79.2562 48.5079 79.0562C51.0079 76.8562 54.1079 75.3562 57.3079 74.7562Z" fill="#2A3D9A"/>
<path d="M163.608 199.256C161.008 199.256 158.308 199.256 155.708 199.256C154.108 199.256 152.008 199.756 151.708 197.456C151.508 195.556 153.808 195.856 154.708 194.956C158.008 191.956 161.808 193.356 165.408 192.656C169.208 191.956 171.508 194.756 174.608 195.556C175.508 195.756 175.808 196.656 175.708 197.556C175.608 198.756 174.708 199.156 173.608 199.156C170.208 199.256 166.908 199.256 163.608 199.256Z" fill="#171818"/>
<path d="M44.008 83.4563C47.408 90.7563 44.808 101.256 38.708 104.956C36.308 96.7563 38.808 89.7563 44.008 83.4563Z" fill="#2A3D9A"/>
<path d="M32.207 335.156C34.607 334.356 36.707 332.556 39.507 333.056C43.807 333.756 45.707 336.556 44.407 340.956C39.207 341.556 35.307 339.256 32.207 335.156Z" fill="#2A3D9A"/>
<path d="M323.306 5.65625C323.306 1.85625 322.406 0.65625 318.406 0.65625C295.106 0.85625 271.806 0.75625 248.406 0.75625C196.906 0.75625 145.506 0.75625 94.0064 0.85625C64.2064 0.85625 34.4064 0.85625 4.50641 0.75625C2.30641 0.75625 0.10641 0.0562499 0.20641 3.95625C0.50641 20.9562 0.40641 37.9562 0.50641 54.9562C-0.49359 59.7562 1.00641 61.8563 6.20641 61.0563C8.30641 60.8563 10.4064 60.8563 12.5064 60.9562H31.4064C29.9064 60.2562 28.3064 59.7563 26.7064 59.3563C28.3064 59.7563 29.9064 60.3563 31.4064 60.9562L47.5064 60.6562C49.2064 60.7562 50.8064 61.0563 52.5064 61.0563C89.3064 61.0563 126.106 60.8563 162.906 61.1562C171.006 61.2562 177.606 60.6562 183.006 53.2562C188.106 46.3562 196.606 43.5562 205.406 40.9562C198.306 36.5562 200.806 30.0563 200.306 24.3563C200.206 23.4563 200.506 22.8563 201.706 22.8563C203.006 22.8563 203.506 23.3562 203.506 24.5562C203.506 27.0562 203.506 29.5562 203.506 32.0562C203.506 35.5563 205.106 37.9563 208.706 38.0563C212.306 38.1562 214.006 35.6562 214.306 32.3563C214.506 29.8563 214.306 27.3563 214.306 24.8563C214.306 23.8563 214.406 22.8563 215.806 22.8563C217.206 22.8563 217.306 23.8563 217.306 24.8563C217.206 29.9563 218.306 35.3563 214.606 40.0563C216.306 40.2563 217.506 40.0562 218.606 40.4562C222.606 41.9562 223.006 39.9562 222.806 36.7562C222.606 33.4562 222.606 30.0562 222.706 26.7563C222.706 25.4563 221.806 23.5562 223.806 22.9562C225.806 22.3562 226.806 23.7563 227.806 25.0562C230.406 28.3562 233.106 31.5563 236.506 35.5563C236.506 31.4563 236.506 28.4562 236.506 25.4562C236.506 24.0562 236.606 22.7563 238.506 22.7563C240.706 22.7563 240.106 24.4562 240.106 25.6562C240.206 29.4562 240.206 33.3563 240.106 37.1562C240.106 38.4562 241.206 40.3563 239.106 40.9562C237.306 41.5562 236.106 40.5563 234.906 39.0563C232.306 35.6562 229.606 32.4562 226.006 28.1562C226.006 32.4562 226.306 35.3562 225.906 38.2562C225.606 40.8562 226.406 41.8562 228.906 42.7562C237.506 45.4562 245.106 50.8563 250.506 58.0563C251.806 60.1562 254.106 61.3563 256.606 61.1562C277.306 61.0563 297.906 61.0563 318.606 61.1562C322.006 61.1562 323.106 60.3562 323.106 56.7562C323.106 39.6562 323.106 22.6562 323.306 5.65625ZM35.9064 22.6562C41.4064 22.8563 43.0064 24.8563 41.3064 30.0562C40.8064 31.6562 41.7064 31.9562 42.2064 32.7562C44.4064 36.6562 42.5064 40.4562 37.9064 40.9562C37.1064 41.0562 36.2064 41.0562 35.4064 40.9562C26.1064 40.9562 26.1064 40.9563 26.1064 31.8563C26.2064 22.3563 26.2064 22.3563 35.9064 22.6562ZM21.9064 58.5563C21.1064 58.5563 20.3064 58.5563 19.5064 58.6562C20.4064 58.5563 21.1064 58.4563 21.9064 58.5563ZM51.5064 32.3563C51.5064 34.6562 51.5064 36.9562 51.5064 39.3563C51.5064 40.2563 51.2064 40.9562 50.1064 40.9562C49.0064 40.9562 48.1064 40.7562 48.1064 39.4562C48.1064 34.3563 48.1064 29.1562 48.1064 24.0562C48.1064 23.0562 48.9064 22.7563 49.8064 22.6562C51.0064 22.5562 51.6064 23.1562 51.5064 24.4562C51.4064 27.0562 51.5064 29.7563 51.5064 32.3563ZM69.2064 40.9562C68.0064 40.9562 66.9064 40.9562 65.7064 40.9562C56.4064 40.9562 56.4064 40.9562 56.5064 31.6562C56.5064 29.3563 56.5064 26.9562 56.5064 24.6562C56.5064 23.5562 56.7064 22.7563 58.1064 22.6562C59.5064 22.5562 59.6064 23.5562 59.6064 24.6562C59.6064 25.4562 59.6064 26.3563 59.6064 27.1562C59.7064 30.4562 58.7064 34.4562 60.2064 36.9562C61.7064 39.4562 66.1064 37.5563 69.1064 37.8563C70.4064 37.9562 71.5064 37.9562 71.4064 39.7562C71.3064 41.1562 70.1064 40.9562 69.2064 40.9562ZM83.7064 40.8563C75.8064 41.1562 75.8064 40.9562 75.8064 31.2563C75.8064 29.1562 75.8064 26.9563 75.8064 24.7563C75.8064 23.3563 76.1064 22.5562 77.7064 22.5562C79.3064 22.5562 79.4064 23.6562 79.4064 24.9562C79.4064 27.9562 79.7064 30.9563 79.3064 33.8563C78.9064 37.3563 80.4064 37.7562 83.5064 37.9562C85.9064 38.0562 90.3064 36.0563 90.4064 39.5563C90.5064 42.4563 86.0064 40.7563 83.7064 40.8563ZM99.4064 31.8563C99.4064 34.1562 99.4064 36.4562 99.4064 38.7562C99.4064 40.0562 99.1064 41.0562 97.5064 40.9562C96.2064 40.9562 95.9064 40.0562 95.9064 38.9562C95.9064 34.1562 95.9064 29.3563 95.9064 24.5562C95.9064 23.3562 96.4064 22.7563 97.6064 22.6562C99.2064 22.5562 99.5064 23.4563 99.5064 24.8563C99.3064 27.1562 99.3064 29.5563 99.4064 31.8563ZM122.106 37.9562C122.106 38.9562 122.606 40.4562 121.006 40.8563C119.706 41.2563 118.306 40.7562 117.506 39.6562C114.606 36.0563 111.706 32.5562 107.906 27.9562C107.906 32.4562 107.906 35.4562 107.906 38.3563C107.906 39.4562 108.206 40.8563 106.406 40.9562C104.306 41.0562 104.506 39.5562 104.506 38.2562C104.506 34.0562 104.406 29.9562 104.506 25.7563C104.506 24.7563 103.706 23.2563 105.306 22.7563C106.906 22.2563 108.106 22.8563 109.106 24.2563C111.706 27.6562 114.406 30.9562 117.406 34.7562C118.906 31.7562 117.906 28.9563 118.306 26.2563C118.506 24.8563 117.206 22.5562 120.206 22.7563C123.206 22.9563 121.806 25.1562 121.906 26.5562C122.206 30.3562 122.206 34.1562 122.106 37.9562ZM142.906 36.0563C141.406 39.9563 138.306 41.5562 134.206 41.2562C129.906 40.9562 127.606 38.2563 126.606 34.5563C125.406 30.2563 127.606 25.0562 131.206 23.4562C134.806 21.8562 138.306 21.9562 141.506 24.5562C142.306 25.1562 143.106 25.8562 142.106 26.9562C140.906 28.2562 140.006 27.4563 138.706 26.7563C135.806 25.1562 132.906 25.1562 130.806 28.2563C128.906 31.0562 129.006 33.9562 131.306 36.4562C133.606 38.9562 136.306 38.7562 138.706 36.4562C139.506 35.7562 140.106 34.6562 138.506 34.3563C137.106 34.0563 135.106 34.8563 135.806 32.2563C136.406 30.0562 138.406 31.6562 139.006 31.2563C144.506 30.2563 144.106 32.9563 142.906 36.0563ZM160.506 35.4562C162.406 37.8563 164.906 38.8563 168.006 37.3563C169.306 36.7563 171.206 34.6562 172.206 36.9562C173.306 39.4562 170.306 39.9562 168.706 40.8563C167.806 41.3563 166.406 41.1562 165.906 41.2562C160.906 41.3562 158.006 39.0563 156.706 35.1562C155.206 31.4562 156.306 27.2563 159.406 24.7563C162.606 21.9563 166.406 21.7563 170.006 23.6562C171.106 24.1562 173.206 24.8563 172.206 26.8563C171.206 28.8563 169.906 27.6562 168.606 26.8563C165.706 25.2563 162.806 25.5562 160.606 28.2563C158.706 30.1562 158.706 33.3563 160.506 35.4562ZM186.306 41.2562C181.006 41.3562 176.606 37.0563 176.506 31.7563C176.506 31.6562 176.506 31.5562 176.506 31.5562C176.606 26.5562 181.106 22.2563 186.306 22.2563C191.506 22.3563 195.606 26.6562 195.606 31.8563C195.706 36.9562 191.706 41.1562 186.606 41.2562C186.606 41.2562 186.506 41.2562 186.306 41.2562ZM256.006 25.9562C253.906 26.3562 254.306 27.6562 254.306 28.9562C254.306 32.2562 254.306 35.6562 254.306 38.9562C254.306 40.3563 253.906 41.2563 252.306 41.0563C251.006 40.9563 250.806 40.0562 250.806 38.9562C250.806 35.9562 250.606 32.9562 250.806 29.9562C251.006 27.1562 250.506 25.4562 247.106 25.9562C246.106 26.0562 244.606 26.4562 244.506 24.5562C244.406 22.4562 246.006 22.7563 247.206 22.7563C249.006 22.6562 250.906 22.7563 252.706 22.7563C253.506 22.6562 254.406 22.6562 255.206 22.7563C256.906 23.2563 259.906 21.3562 260.206 24.0562C260.806 27.6562 257.506 25.5562 256.006 25.9562ZM277.706 41.0563C274.106 41.0563 270.406 40.9563 266.706 41.0563C264.906 41.0563 264.406 40.3563 264.506 38.6562C264.606 36.3563 264.506 34.0563 264.506 31.6562C264.506 22.7563 264.506 22.7563 273.406 22.7563C274.106 22.6562 274.706 22.6562 275.406 22.7563C276.806 23.1562 279.206 21.5563 279.206 24.3563C279.206 27.1562 276.806 25.7562 275.406 25.9562C273.706 26.1562 272.106 26.1562 270.406 26.0562C269.206 26.0562 268.006 25.9562 267.906 27.6562C267.806 29.5562 268.906 29.7563 270.406 29.7563C270.706 29.7563 271.106 29.7563 271.406 29.8563C272.406 30.1562 274.206 28.5562 274.306 31.1562C274.406 33.7562 272.706 33.1562 271.306 33.1562C269.306 33.0563 267.806 33.1562 267.906 35.9562C268.006 38.7562 269.906 38.0563 271.406 38.1562C273.406 38.2562 275.406 38.1562 277.406 38.1562C278.406 38.1562 279.306 38.1562 279.406 39.6562C279.506 41.1562 278.806 40.9563 277.706 41.0563ZM301.206 40.4562C298.706 41.3563 297.306 41.1562 296.406 39.2562C295.906 38.2562 295.006 37.3562 294.606 36.2562C293.606 33.4562 291.206 34.0563 289.206 34.1562C286.406 34.2562 287.806 36.5562 287.406 37.9562C287.106 39.0562 288.306 40.8563 286.206 41.0563C283.806 41.2563 284.306 39.3563 284.306 37.9562C284.306 33.8563 284.406 29.6562 284.306 25.5562C284.306 23.4562 284.906 22.5562 287.106 22.7563C290.106 22.9563 293.106 22.6562 296.006 22.9562C300.006 23.3562 302.706 27.4563 300.406 30.3563C297.306 34.0563 298.406 36.9562 301.206 40.4562Z" fill="#24272D" fill-opacity="0.7"/>
<path d="M162.608 145.556C163.008 147.256 161.608 147.456 160.708 147.956C158.108 149.356 155.408 150.556 152.808 152.056C149.308 154.156 146.108 156.956 143.508 150.656C142.408 148.156 139.108 147.156 136.108 147.656C133.708 148.056 132.608 146.956 132.108 145.056C131.508 142.856 133.608 142.956 134.708 142.356C140.508 139.156 146.308 136.156 152.108 132.956C154.408 131.656 155.808 131.856 157.008 134.556C158.608 138.456 160.708 141.956 162.608 145.556Z" fill="#F4F3F3"/>
<path d="M74.5078 322.256C71.5078 324.656 72.8078 326.756 74.6078 328.656C76.4078 330.556 78.4078 330.356 80.4078 328.756C81.5078 327.856 82.7078 325.956 84.0078 327.756C85.3078 329.556 83.1078 330.356 82.1078 331.256C78.7078 334.256 75.4078 333.056 72.3078 330.456C69.2078 327.856 68.5078 324.756 70.9078 321.256C72.4078 319.056 74.6078 318.156 76.9078 319.456C79.4078 320.856 78.5078 323.656 78.1078 325.756C77.8078 327.356 76.4078 327.056 75.6078 325.756C75.1078 324.756 75.9078 323.456 74.5078 322.256Z" fill="#2A3D9A"/>
<path d="M107.907 27.9563C107.907 32.4563 107.907 35.4563 107.907 38.3563C107.907 39.4563 108.207 40.8563 106.407 40.9563C104.307 41.0563 104.507 39.5563 104.507 38.2563C104.507 34.0563 104.407 29.9563 104.507 25.7563C104.507 24.7563 103.707 23.2563 105.307 22.7563C106.907 22.2563 108.107 22.8563 109.107 24.2563C111.707 27.6563 114.407 30.9563 117.407 34.7563C118.907 31.7563 117.907 28.9563 118.307 26.2563C118.507 24.8563 117.207 22.5563 120.207 22.7563C123.207 22.9563 121.807 25.1563 121.907 26.5563C122.007 30.3563 122.007 34.1563 121.907 37.9563C121.907 38.9563 122.407 40.4563 120.807 40.8563C119.507 41.2563 118.107 40.7563 117.307 39.6563C114.707 36.1563 111.707 32.6563 107.907 27.9563Z" fill="#F4F3F3"/>
<path d="M26.207 31.8562C26.207 22.3562 26.207 22.3562 36.007 22.7562C41.507 22.9562 43.107 24.9562 41.407 30.1562C40.907 31.7562 41.807 32.0562 42.307 32.8562C44.507 36.7562 42.607 40.4562 38.007 41.0562C37.207 41.1562 36.307 41.1562 35.507 41.0562C26.207 41.0562 26.207 41.0562 26.207 31.8562ZM33.707 37.9562C35.807 37.4562 39.507 39.0562 39.507 35.2562C39.507 31.7562 36.007 33.0562 33.907 33.0562C32.207 33.0562 29.307 31.5562 29.407 35.5562C29.507 39.1562 32.007 37.4562 33.707 37.9562ZM34.007 25.8562C32.707 26.8562 29.607 24.2562 29.507 27.6562C29.407 31.0562 32.407 29.5562 33.907 29.5562C35.407 29.5562 38.607 30.6562 38.707 27.7562C38.807 24.8562 35.807 26.4562 34.007 25.8562Z" fill="#F4F3F3"/>
<path d="M195.708 31.8562C195.808 36.9562 191.808 41.1562 186.708 41.2562C186.608 41.2562 186.508 41.2562 186.308 41.2562C181.008 41.3562 176.608 37.0562 176.508 31.7562C176.508 31.6562 176.508 31.5562 176.508 31.5562C176.608 26.5562 181.108 22.2562 186.308 22.2562C191.508 22.3562 195.708 26.6562 195.708 31.8562ZM192.608 32.1562C192.308 27.8562 190.108 25.7562 186.208 25.8562C182.608 25.8562 180.208 27.7562 180.208 31.5562C180.208 35.3562 182.208 37.7562 186.108 37.9562C190.008 38.1562 191.908 35.4562 192.608 32.1562Z" fill="#F4F3F3"/>
<path d="M301.207 40.3562C298.707 41.2562 297.307 41.0562 296.407 39.1562C295.907 38.1562 295.007 37.2562 294.607 36.1562C293.607 33.3562 291.207 33.9562 289.207 34.0562C286.407 34.1562 287.807 36.4562 287.407 37.8562C287.107 38.9562 288.307 40.7562 286.207 40.9562C283.807 41.1562 284.307 39.2562 284.307 37.8562C284.307 33.7562 284.407 29.5562 284.307 25.4562C284.307 23.3562 284.907 22.4562 287.107 22.6562C290.107 22.8562 293.107 22.5562 296.007 22.8562C300.007 23.2562 302.707 27.3562 300.407 30.2562C297.307 34.0562 298.407 36.9562 301.207 40.3562ZM292.207 30.9562C294.307 30.5562 297.607 31.9562 297.607 28.3562C297.607 24.9562 294.507 25.9562 292.607 26.0562C290.707 26.1562 287.507 24.2562 287.507 28.4562C287.507 32.4562 290.607 30.1562 292.207 30.9562Z" fill="#F4F3F3"/>
<path d="M139.007 31.1563C144.507 30.1563 144.107 32.9563 142.907 35.9563C141.407 39.8563 138.307 41.4563 134.207 41.1563C129.907 40.8563 127.607 38.1563 126.607 34.4563C125.407 30.1563 127.607 24.9563 131.207 23.3563C134.807 21.7563 138.307 21.8563 141.507 24.4563C142.307 25.0563 143.107 25.7563 142.107 26.8563C140.907 28.1563 140.007 27.3563 138.707 26.6563C135.807 25.0563 132.907 25.0563 130.807 28.1563C128.907 30.9563 129.007 33.8563 131.307 36.3563C133.607 38.8563 136.307 38.6563 138.707 36.3563C139.507 35.6563 140.107 34.5563 138.507 34.2563C137.107 33.9563 135.107 34.7563 135.807 32.1563C136.307 30.0563 138.407 31.5563 139.007 31.1563Z" fill="#F4F3F3"/>
<path d="M264.606 31.6562C264.606 22.7562 264.606 22.7562 273.506 22.7562C274.206 22.6562 274.806 22.6562 275.506 22.7562C276.906 23.1562 279.306 21.5563 279.306 24.3563C279.306 27.1562 276.906 25.7562 275.506 25.9562C273.806 26.1562 272.206 26.1562 270.506 26.0562C269.306 26.0562 268.106 25.9562 268.006 27.6562C267.906 29.5562 269.006 29.7562 270.506 29.7562C270.806 29.7562 271.206 29.7563 271.506 29.8563C272.506 30.1563 274.306 28.5562 274.406 31.1562C274.506 33.7562 272.806 33.1562 271.406 33.1562C269.406 33.0562 267.906 33.1562 268.006 35.9562C268.106 38.7562 270.006 38.0562 271.506 38.1562C273.506 38.2562 275.506 38.1562 277.506 38.1562C278.506 38.1562 279.406 38.1562 279.506 39.6562C279.606 41.1562 278.806 41.2562 277.706 41.2562C274.106 41.2562 270.406 41.1562 266.706 41.2562C264.906 41.2562 264.406 40.5563 264.506 38.8563C264.606 36.2563 264.606 33.9562 264.606 31.6562Z" fill="#F4F3F3"/>
<path d="M165.907 41.1562C160.907 41.2562 158.007 38.9562 156.707 35.0562C155.207 31.3562 156.307 27.1562 159.407 24.6562C162.607 21.8562 166.407 21.6562 170.007 23.5562C171.107 24.0562 173.207 24.7562 172.207 26.7562C171.207 28.7562 169.907 27.5562 168.607 26.7562C165.707 25.1562 162.807 25.4562 160.607 28.1562C158.707 30.2562 158.707 33.3562 160.507 35.4562C162.407 37.8562 164.907 38.8562 168.007 37.3562C169.307 36.7562 171.207 34.6562 172.207 36.9562C173.307 39.4562 170.307 39.9562 168.707 40.8562C167.807 41.3562 166.507 41.0562 165.907 41.1562Z" fill="#F4F3F3"/>
<path d="M252.806 22.6563C253.606 22.5563 254.506 22.5563 255.306 22.6563C257.006 23.1563 260.006 21.2563 260.306 23.9563C260.806 27.5563 257.506 25.5563 256.006 25.8563C253.906 26.2563 254.306 27.5563 254.306 28.8563C254.306 32.1563 254.306 35.5563 254.306 38.8563C254.306 40.2563 253.906 41.1563 252.306 40.9563C251.006 40.8563 250.806 39.9563 250.806 38.8563C250.806 35.8563 250.606 32.8563 250.806 29.8563C251.006 27.0563 250.506 25.3563 247.106 25.8563C246.106 25.9563 244.606 26.3563 244.506 24.4563C244.406 22.3563 246.006 22.6563 247.206 22.6563C249.106 22.6563 251.006 22.6563 252.806 22.6563Z" fill="#F4F3F3"/>
<path d="M75.8066 31.3563C75.8066 29.2563 75.8066 27.0563 75.8066 24.8563C75.8066 23.4563 76.1066 22.6562 77.7066 22.6562C79.3066 22.6562 79.5066 23.7562 79.5066 25.0562C79.5066 28.0562 79.8066 31.0562 79.4066 33.9562C79.0066 37.4562 80.5066 37.8563 83.6066 38.0563C86.0066 38.1563 90.4066 36.1562 90.5066 39.6562C90.6066 42.5562 86.1066 40.8562 83.8066 40.9562C75.8066 41.1562 75.8066 40.9563 75.8066 31.3563Z" fill="#F4F3F3"/>
<path d="M56.5078 31.6562C56.5078 29.3562 56.5078 26.9562 56.5078 24.6562C56.5078 23.5562 56.7078 22.7562 58.1078 22.6562C59.5078 22.5562 59.6078 23.5562 59.6078 24.6562C59.6078 25.4562 59.6078 26.3562 59.6078 27.1562C59.7078 30.4562 58.7078 34.4562 60.2078 36.9562C61.7078 39.4562 66.1078 37.5562 69.1078 37.8562C70.4078 37.9562 71.5078 37.9562 71.4078 39.7562C71.3078 41.2562 70.2078 41.0562 69.2078 41.0562C68.0078 41.0562 66.9078 41.0562 65.7078 41.0562C56.5078 40.9562 56.5078 40.9562 56.5078 31.6562Z" fill="#F4F3F3"/>
<path d="M51.5074 32.3562C51.5074 34.6562 51.5074 36.9562 51.5074 39.3562C51.5074 40.2562 51.2074 40.9562 50.1074 40.9562C49.0074 40.9562 48.1074 40.7562 48.1074 39.4562C48.1074 34.3562 48.1074 29.1562 48.1074 24.0562C48.1074 23.0562 48.9074 22.7562 49.8074 22.6562C51.0074 22.5562 51.6074 23.1562 51.5074 24.4562C51.4074 27.0562 51.5074 29.7562 51.5074 32.3562Z" fill="#F4F3F3"/>
<path d="M99.3066 31.8562C99.3066 34.1562 99.3066 36.4562 99.3066 38.7562C99.3066 40.0562 99.0066 41.0562 97.4066 40.9562C96.1066 40.9562 95.8066 40.0562 95.8066 38.9562C95.8066 34.1562 95.8066 29.3562 95.8066 24.5562C95.8066 23.3562 96.3066 22.7562 97.5066 22.6562C99.1066 22.5562 99.4066 23.4562 99.4066 24.8562C99.3066 27.1562 99.3066 29.5562 99.3066 31.8562Z" fill="#F4F3F3"/>
<path d="M146.307 273.756C142.007 273.756 137.607 273.656 133.307 273.756C129.007 273.856 130.507 270.956 130.507 268.956C130.507 266.956 129.007 264.156 133.307 264.156C142.107 264.356 150.907 264.356 159.807 264.156C163.607 264.056 162.807 266.556 162.607 268.456C162.407 270.356 164.407 273.856 159.807 273.756C155.207 273.656 150.807 273.756 146.307 273.756Z" fill="#F4F3F3"/>
<path d="M112.008 293.656H180.508C180.008 295.856 178.608 295.156 177.608 295.156C170.908 295.256 164.308 295.156 157.608 295.256C155.108 295.256 152.308 294.056 151.608 298.856C151.208 301.656 146.708 299.556 144.108 300.056C143.008 300.256 141.108 300.756 141.308 298.456C141.608 295.056 139.308 295.256 137.108 295.256C130.108 295.256 123.108 295.256 116.108 295.256C114.808 295.156 113.408 295.756 112.008 293.656Z" fill="#F4F3F3"/>
<path d="M163.607 171.056H151.707C150.507 171.056 149.107 171.056 149.007 169.656C148.907 167.956 150.307 167.356 151.707 167.356C159.607 167.256 167.607 167.356 175.507 167.356C176.907 167.356 178.307 167.656 178.407 169.356C178.507 171.456 176.807 171.056 175.607 171.056C171.507 171.156 167.607 171.056 163.607 171.056Z" fill="#F4F3F3"/>
<path d="M163.806 176.956H175.306C176.606 176.956 178.206 176.856 178.406 178.656C178.606 180.456 176.906 180.556 175.606 180.556C167.606 180.556 159.606 180.556 151.606 180.556C150.406 180.556 149.006 180.256 149.006 178.856C148.906 177.056 150.506 176.956 151.806 176.956H163.806Z" fill="#F4F3F3"/>
<path d="M33.7068 37.9563C32.0068 37.4563 29.4068 39.1563 29.4068 35.5563C29.3068 31.5563 32.2068 33.0563 33.9068 33.0563C36.0068 33.0563 39.4068 31.7563 39.5068 35.2563C39.5068 39.0563 35.8068 37.4563 33.7068 37.9563Z" fill="#24272D"/>
<path d="M34.0075 25.8562C35.8075 26.3562 38.8075 24.8562 38.8075 27.8562C38.8075 30.8562 35.7075 29.7562 34.0075 29.6562C32.3075 29.5562 29.4075 31.0562 29.6075 27.7562C29.8075 24.4562 32.6075 26.8562 34.0075 25.8562Z" fill="#24272D"/>
<path d="M192.607 32.1562C191.907 35.4562 190.107 38.0562 186.107 37.9562C182.107 37.8562 180.107 35.4562 180.207 31.5562C180.307 27.6562 182.607 25.8562 186.207 25.8562C190.107 25.7562 192.307 27.8562 192.607 32.1562Z" fill="#24272D"/>
<path d="M292.208 30.9563C290.608 30.1563 287.508 32.4563 287.508 28.4563C287.508 24.1563 290.808 26.1563 292.608 26.0563C294.408 25.9563 297.608 24.9563 297.608 28.3563C297.608 31.9563 294.308 30.4563 292.208 30.9563Z" fill="#24272D"/>
<path d="M228.406 77.9563H222.206C221.806 74.5563 220.006 71.3563 217.306 69.4563H228.306C229.006 69.4563 229.506 68.9563 229.506 68.2563C229.506 67.5563 229.006 67.0563 228.306 67.0563H202.606C201.906 67.0563 201.406 67.5563 201.406 68.2563C201.406 68.9563 201.906 69.4563 202.606 69.4563H210.006C215.006 69.4563 219.106 73.2563 219.706 77.9563H202.606C201.906 77.9563 201.406 78.4563 201.406 79.1563C201.406 79.8563 201.906 80.3563 202.606 80.3563H219.706C219.106 85.2563 214.906 88.9563 210.006 88.9563H202.606C201.906 88.9563 201.406 89.5563 201.406 90.2563C201.406 90.5563 201.506 90.8563 201.806 91.1563L220.206 108.556C220.706 109.056 221.506 108.956 221.906 108.556C222.406 108.056 222.306 107.256 221.906 106.856L205.706 91.5563H210.006C216.306 91.5563 221.606 86.6563 222.206 80.4563H228.406C229.106 80.4563 229.606 79.9563 229.606 79.2563C229.606 78.5563 229.006 77.9563 228.406 77.9563Z" fill="#D20023"/>
</g>
<defs>
<clipPath id="clip0_688_2831">
<rect width="323.1" height="340.4" fill="white" transform="translate(0.207031 0.65625)"/>
</clipPath>
</defs>
</svg>
