<svg width="28" height="29" viewBox="0 0 28 29" fill="none" xmlns="http://www.w3.org/2000/svg">
<circle cx="14" cy="14.5" r="14" fill="white"/>
<path d="M20.2071 11.4831C19.7881 11.6693 19.3458 11.7857 18.8802 11.8556C19.3458 11.5762 19.7183 11.1339 19.8812 10.5985C19.4389 10.8546 18.9501 11.0408 18.4146 11.1572C17.9956 10.7149 17.3904 10.4355 16.7386 10.4355C15.4815 10.4355 14.4572 11.4598 14.4572 12.7169C14.4572 12.9031 14.4805 13.0661 14.5271 13.229C12.6415 13.1359 10.9421 12.228 9.80141 10.8313C9.61518 11.1805 9.49878 11.5529 9.49878 11.972C9.49878 12.7634 9.89453 13.4618 10.5231 13.8808C10.1506 13.8576 9.80141 13.7644 9.4755 13.6015V13.6248C9.4755 14.7422 10.267 15.6733 11.3145 15.8828C11.1283 15.9294 10.9188 15.9527 10.7093 15.9527C10.5696 15.9527 10.4067 15.9294 10.267 15.9061C10.5696 16.814 11.4077 17.4891 12.4087 17.4891C11.6172 18.0943 10.6395 18.4668 9.56862 18.4668C9.38239 18.4668 9.19616 18.4668 9.0332 18.4435C10.0575 19.0953 11.2447 19.4678 12.5483 19.4678C16.7618 19.4678 19.0665 15.976 19.0665 12.9497C19.0665 12.8566 19.0665 12.7402 19.0665 12.6471C19.5088 12.3444 19.9045 11.9487 20.2071 11.4831Z" fill="#1A3760"/>
</svg>
