<svg width="28" height="29" viewBox="0 0 28 29" fill="none" xmlns="http://www.w3.org/2000/svg">
<rect y="0.5" width="28" height="28" rx="14" fill="white"/>
<path fill-rule="evenodd" clip-rule="evenodd" d="M12.4976 12.7322H14.6641V13.8114C14.9762 13.1907 15.7766 12.6331 16.9788 12.6331C19.2836 12.6331 19.8307 13.8686 19.8307 16.1354V20.3337H17.4974V16.6517C17.4974 15.3607 17.1853 14.6327 16.3908 14.6327C15.2889 14.6327 14.831 15.4173 14.831 16.6511V20.3337H12.4976V12.7322ZM8.49656 20.2345H10.8299V12.6331H8.49656V20.2345ZM11.1641 10.1545C11.1642 10.3501 11.1254 10.5437 11.05 10.7242C10.9746 10.9046 10.8641 11.0683 10.7249 11.2057C10.5853 11.3446 10.4196 11.4546 10.2375 11.5295C10.0553 11.6043 9.86018 11.6426 9.66323 11.642C9.26633 11.6411 8.8856 11.4847 8.60273 11.2062C8.46407 11.0684 8.35396 10.9045 8.27869 10.724C8.20341 10.5436 8.16446 10.35 8.16406 10.1545C8.16406 9.75958 8.32156 9.38158 8.60331 9.10274C8.88547 8.82326 9.26667 8.66663 9.66381 8.66699C10.0616 8.66699 10.4431 8.82391 10.7249 9.10274C11.0066 9.38158 11.1641 9.75958 11.1641 10.1545Z" fill="#1A3760"/>
</svg>
