<svg width="194" height="55" viewBox="0 0 194 55" fill="none" xmlns="http://www.w3.org/2000/svg">
<rect y="0.015625" width="194" height="54" rx="27" fill="#F2F7FD"/>
<path d="M24.7159 22.9126V20.9247H35.1605V22.9126H31.1143V34.0156H28.7621V22.9126H24.7159ZM38.5611 34.2138C37.9389 34.2138 37.3786 34.103 36.88 33.8814C36.3857 33.6555 35.9936 33.3232 35.7038 32.8842C35.4183 32.4453 35.2756 31.9041 35.2756 31.2607C35.2756 30.7067 35.3778 30.2486 35.5824 29.8864C35.7869 29.5241 36.0661 29.2344 36.4197 29.017C36.7734 28.7997 37.1719 28.6357 37.6151 28.5249C38.0625 28.4098 38.5249 28.3267 39.0021 28.2756C39.5774 28.2159 40.044 28.1626 40.402 28.1158C40.7599 28.0646 41.0199 27.9879 41.1818 27.8857C41.348 27.7791 41.4311 27.6151 41.4311 27.3935V27.3551C41.4311 26.8736 41.2884 26.5007 41.0028 26.2365C40.7173 25.9723 40.3061 25.8402 39.7692 25.8402C39.2024 25.8402 38.7528 25.9638 38.4205 26.2109C38.0923 26.4581 37.8707 26.75 37.7557 27.0866L35.5952 26.7798C35.7656 26.1832 36.0469 25.6847 36.4389 25.2841C36.831 24.8793 37.3104 24.5767 37.8771 24.3764C38.4439 24.1719 39.0703 24.0696 39.7564 24.0696C40.2294 24.0696 40.7003 24.125 41.169 24.2358C41.6378 24.3466 42.0661 24.5298 42.4538 24.7855C42.8416 25.0369 43.1527 25.38 43.3871 25.8146C43.6257 26.2493 43.745 26.7926 43.745 27.4446V34.0156H41.5206V32.6669H41.4439C41.3033 32.9396 41.1051 33.1953 40.8494 33.4339C40.598 33.6683 40.2805 33.858 39.897 34.0028C39.5178 34.1435 39.0724 34.2138 38.5611 34.2138ZM39.1619 32.5135C39.6264 32.5135 40.0291 32.4219 40.37 32.2386C40.7109 32.0511 40.973 31.804 41.1562 31.4972C41.3438 31.1903 41.4375 30.8558 41.4375 30.4936V29.3366C41.3651 29.3963 41.2415 29.4517 41.0668 29.5028C40.8963 29.554 40.7045 29.5987 40.4915 29.6371C40.2784 29.6754 40.0675 29.7095 39.8587 29.7393C39.6499 29.7692 39.4688 29.7947 39.3153 29.8161C38.9702 29.8629 38.6612 29.9396 38.3885 30.0462C38.1158 30.1527 37.9006 30.3018 37.7429 30.4936C37.5852 30.6811 37.5064 30.924 37.5064 31.2223C37.5064 31.6484 37.6619 31.9702 37.973 32.1875C38.2841 32.4048 38.6804 32.5135 39.1619 32.5135ZM48.3857 20.9247V34.0156H46.0717V20.9247H48.3857ZM52.8745 30.9347L52.8681 28.1413H53.2388L56.7672 24.1974H59.4711L55.1309 29.0298H54.6515L52.8745 30.9347ZM50.7651 34.0156V20.9247H53.079V34.0156H50.7651ZM56.927 34.0156L53.731 29.5476L55.2907 27.9176L59.6948 34.0156H56.927ZM70.3807 24.1974V25.9872H64.7365V24.1974H70.3807ZM66.13 21.8452H68.4439V31.0625C68.4439 31.3736 68.4908 31.6122 68.5845 31.7784C68.6825 31.9403 68.8104 32.0511 68.968 32.1108C69.1257 32.1705 69.3004 32.2003 69.4922 32.2003C69.6371 32.2003 69.7692 32.1896 69.8885 32.1683C70.0121 32.147 70.1058 32.1278 70.1697 32.1108L70.5597 33.9197C70.4361 33.9624 70.2592 34.0092 70.0291 34.0604C69.8033 34.1115 69.5263 34.1413 69.1982 34.1499C68.6186 34.1669 68.0966 34.0795 67.6321 33.8878C67.1676 33.6918 66.799 33.3892 66.5263 32.9801C66.2578 32.571 66.1257 32.0597 66.13 31.446V21.8452ZM76.4931 34.2074C75.5343 34.2074 74.7033 33.9964 74.0002 33.5746C73.2971 33.1527 72.7516 32.5625 72.3638 31.804C71.9803 31.0455 71.7885 30.1591 71.7885 29.1449C71.7885 28.1307 71.9803 27.2422 72.3638 26.4794C72.7516 25.7166 73.2971 25.1243 74.0002 24.7024C74.7033 24.2805 75.5343 24.0696 76.4931 24.0696C77.4519 24.0696 78.2828 24.2805 78.986 24.7024C79.6891 25.1243 80.2324 25.7166 80.6159 26.4794C81.0037 27.2422 81.1976 28.1307 81.1976 29.1449C81.1976 30.1591 81.0037 31.0455 80.6159 31.804C80.2324 32.5625 79.6891 33.1527 78.986 33.5746C78.2828 33.9964 77.4519 34.2074 76.4931 34.2074ZM76.5059 32.3537C77.0257 32.3537 77.4604 32.2109 77.8098 31.9254C78.1593 31.6357 78.4192 31.2479 78.5897 30.7621C78.7644 30.2763 78.8517 29.7351 78.8517 29.1385C78.8517 28.5376 78.7644 27.9943 78.5897 27.5085C78.4192 27.0185 78.1593 26.6286 77.8098 26.3388C77.4604 26.049 77.0257 25.9041 76.5059 25.9041C75.9732 25.9041 75.53 26.049 75.1763 26.3388C74.8269 26.6286 74.5648 27.0185 74.3901 27.5085C74.2196 27.9943 74.1344 28.5376 74.1344 29.1385C74.1344 29.7351 74.2196 30.2763 74.3901 30.7621C74.5648 31.2479 74.8269 31.6357 75.1763 31.9254C75.53 32.2109 75.9732 32.3537 76.5059 32.3537ZM90.4517 34.2138C89.8295 34.2138 89.2692 34.103 88.7706 33.8814C88.2763 33.6555 87.8842 33.3232 87.5945 32.8842C87.3089 32.4453 87.1662 31.9041 87.1662 31.2607C87.1662 30.7067 87.2685 30.2486 87.473 29.8864C87.6776 29.5241 87.9567 29.2344 88.3104 29.017C88.6641 28.7997 89.0625 28.6357 89.5057 28.5249C89.9531 28.4098 90.4155 28.3267 90.8928 28.2756C91.468 28.2159 91.9347 28.1626 92.2926 28.1158C92.6506 28.0646 92.9105 27.9879 93.0724 27.8857C93.2386 27.7791 93.3217 27.6151 93.3217 27.3935V27.3551C93.3217 26.8736 93.179 26.5007 92.8935 26.2365C92.608 25.9723 92.1967 25.8402 91.6598 25.8402C91.093 25.8402 90.6435 25.9638 90.3111 26.2109C89.983 26.4581 89.7614 26.75 89.6463 27.0866L87.4858 26.7798C87.6563 26.1832 87.9375 25.6847 88.3295 25.2841C88.7216 24.8793 89.201 24.5767 89.7678 24.3764C90.3345 24.1719 90.9609 24.0696 91.647 24.0696C92.12 24.0696 92.5909 24.125 93.0597 24.2358C93.5284 24.3466 93.9567 24.5298 94.3445 24.7855C94.7322 25.0369 95.0433 25.38 95.2777 25.8146C95.5163 26.2493 95.6357 26.7926 95.6357 27.4446V34.0156H93.4112V32.6669H93.3345C93.1939 32.9396 92.9957 33.1953 92.7401 33.4339C92.4886 33.6683 92.1712 33.858 91.7876 34.0028C91.4084 34.1435 90.9631 34.2138 90.4517 34.2138ZM91.0526 32.5135C91.517 32.5135 91.9197 32.4219 92.2607 32.2386C92.6016 32.0511 92.8636 31.804 93.0469 31.4972C93.2344 31.1903 93.3281 30.8558 93.3281 30.4936V29.3366C93.2557 29.3963 93.1321 29.4517 92.9574 29.5028C92.7869 29.554 92.5952 29.5987 92.3821 29.6371C92.169 29.6754 91.9581 29.7095 91.7493 29.7393C91.5405 29.7692 91.3594 29.7947 91.206 29.8161C90.8608 29.8629 90.5518 29.9396 90.2791 30.0462C90.0064 30.1527 89.7912 30.3018 89.6335 30.4936C89.4759 30.6811 89.397 30.924 89.397 31.2223C89.397 31.6484 89.5526 31.9702 89.8636 32.1875C90.1747 32.4048 90.571 32.5135 91.0526 32.5135ZM100.276 28.2628V34.0156H97.9624V24.1974H100.174V25.8658H100.289C100.515 25.3161 100.875 24.8793 101.369 24.5554C101.868 24.2315 102.484 24.0696 103.217 24.0696C103.894 24.0696 104.484 24.2145 104.987 24.5043C105.494 24.794 105.886 25.2138 106.163 25.7635C106.445 26.3132 106.583 26.9801 106.579 27.7642V34.0156H104.265V28.1222C104.265 27.4659 104.094 26.9524 103.754 26.5817C103.417 26.2109 102.95 26.0256 102.354 26.0256C101.949 26.0256 101.589 26.1151 101.273 26.294C100.962 26.4687 100.717 26.7223 100.538 27.0547C100.364 27.3871 100.276 27.7898 100.276 28.2628ZM113.498 34.0156V20.9247H122.012V22.9126H115.87V26.4666H121.571V28.4545H115.87V32.0277H122.064V34.0156H113.498ZM126.222 24.1974L128.203 27.8217L130.217 24.1974H132.665L129.705 29.1065L132.716 34.0156H130.281L128.203 30.4808L126.145 34.0156H123.69L126.682 29.1065L123.767 24.1974H126.222ZM134.455 37.6974V24.1974H136.73V25.821H136.864C136.984 25.5824 137.152 25.3288 137.369 25.0604C137.587 24.7876 137.881 24.5554 138.251 24.3636C138.622 24.1676 139.095 24.0696 139.67 24.0696C140.429 24.0696 141.113 24.2635 141.722 24.6513C142.336 25.0348 142.822 25.6037 143.18 26.358C143.542 27.108 143.723 28.0284 143.723 29.1193C143.723 30.1974 143.546 31.1136 143.192 31.8679C142.839 32.6222 142.357 33.1974 141.748 33.5938C141.138 33.9901 140.448 34.1882 139.677 34.1882C139.114 34.1882 138.648 34.0945 138.277 33.907C137.906 33.7195 137.608 33.4936 137.382 33.2294C137.161 32.9609 136.988 32.7074 136.864 32.4688H136.768V37.6974H134.455ZM136.724 29.1065C136.724 29.7415 136.813 30.2976 136.992 30.7749C137.175 31.2521 137.438 31.625 137.778 31.8935C138.124 32.1577 138.541 32.2898 139.031 32.2898C139.543 32.2898 139.971 32.1534 140.316 31.8807C140.661 31.6037 140.921 31.2266 141.096 30.7493C141.275 30.2678 141.364 29.7202 141.364 29.1065C141.364 28.4972 141.277 27.956 141.102 27.483C140.928 27.0099 140.668 26.6392 140.322 26.3707C139.977 26.1023 139.547 25.968 139.031 25.968C138.537 25.968 138.117 26.098 137.772 26.358C137.427 26.6179 137.165 26.9822 136.986 27.451C136.811 27.9197 136.724 28.4716 136.724 29.1065ZM150.051 34.2074C149.067 34.2074 148.217 34.0028 147.501 33.5938C146.789 33.1804 146.241 32.5966 145.858 31.8423C145.474 31.0838 145.283 30.1911 145.283 29.1641C145.283 28.1541 145.474 27.2678 145.858 26.505C146.246 25.7379 146.787 25.1413 147.482 24.7152C148.176 24.2848 148.992 24.0696 149.93 24.0696C150.535 24.0696 151.106 24.1676 151.643 24.3636C152.184 24.5554 152.661 24.8537 153.075 25.2585C153.492 25.6634 153.82 26.179 154.059 26.8054C154.298 27.4276 154.417 28.169 154.417 29.0298V29.7393H146.369V28.1797H152.199C152.195 27.7365 152.099 27.3423 151.911 26.9972C151.724 26.6477 151.462 26.3729 151.125 26.1726C150.793 25.9723 150.405 25.8722 149.962 25.8722C149.489 25.8722 149.073 25.9872 148.715 26.2173C148.357 26.4432 148.078 26.7415 147.878 27.1122C147.682 27.4787 147.582 27.8814 147.577 28.3203V29.6818C147.577 30.2528 147.682 30.7429 147.891 31.152C148.099 31.5568 148.391 31.8679 148.766 32.0852C149.141 32.2983 149.58 32.4048 150.083 32.4048C150.42 32.4048 150.724 32.358 150.997 32.2642C151.27 32.1662 151.506 32.0234 151.707 31.8359C151.907 31.6484 152.058 31.4162 152.161 31.1392L154.321 31.3821C154.185 31.9531 153.925 32.4517 153.541 32.8778C153.162 33.2997 152.676 33.6278 152.084 33.8622C151.491 34.0923 150.814 34.2074 150.051 34.2074ZM156.374 34.0156V24.1974H158.618V25.8338H158.72C158.899 25.267 159.206 24.8303 159.641 24.5234C160.08 24.2124 160.58 24.0568 161.143 24.0568C161.271 24.0568 161.414 24.0632 161.571 24.076C161.733 24.0845 161.867 24.0994 161.974 24.1207V26.2493C161.876 26.2152 161.72 26.1854 161.507 26.1598C161.298 26.13 161.096 26.1151 160.9 26.1151C160.478 26.1151 160.099 26.2067 159.762 26.3899C159.43 26.5689 159.168 26.8182 158.976 27.1378C158.784 27.4574 158.688 27.826 158.688 28.2436V34.0156H156.374ZM168.941 24.1974V25.9872H163.297V24.1974H168.941ZM164.691 21.8452H167.004V31.0625C167.004 31.3736 167.051 31.6122 167.145 31.7784C167.243 31.9403 167.371 32.0511 167.529 32.1108C167.686 32.1705 167.861 32.2003 168.053 32.2003C168.198 32.2003 168.33 32.1896 168.449 32.1683C168.573 32.147 168.666 32.1278 168.73 32.1108L169.12 33.9197C168.997 33.9624 168.82 34.0092 168.59 34.0604C168.364 34.1115 168.087 34.1413 167.759 34.1499C167.179 34.1669 166.657 34.0795 166.193 33.8878C165.728 33.6918 165.36 33.3892 165.087 32.9801C164.818 32.571 164.686 32.0597 164.691 31.446V21.8452Z" fill="#1A3760"/>
</svg>
