<svg width="149" height="55" viewBox="0 0 149 55" fill="none" xmlns="http://www.w3.org/2000/svg">
<rect y="0.015625" width="149" height="54" rx="27" fill="#2A3D9A"/>
<path d="M34.0611 25.1051C33.9545 24.7599 33.8075 24.451 33.62 24.1783C33.4368 23.9013 33.2152 23.6648 32.9553 23.4688C32.6996 23.2727 32.4055 23.1257 32.0732 23.0277C31.7408 22.9254 31.3786 22.8743 30.9865 22.8743C30.2834 22.8743 29.657 23.0511 29.1072 23.4048C28.5575 23.7585 28.125 24.2784 27.8097 24.9645C27.4986 25.6463 27.343 26.4773 27.343 27.4574C27.343 28.446 27.4986 29.2834 27.8097 29.9695C28.1207 30.6555 28.5533 31.1776 29.1072 31.5355C29.6612 31.8892 30.3047 32.0661 31.0376 32.0661C31.7024 32.0661 32.2777 31.9382 32.7635 31.6825C33.2536 31.4268 33.6307 31.0646 33.8949 30.5959C34.1591 30.1229 34.2912 29.5689 34.2912 28.9339L34.8281 29.017H31.2741V27.1634H36.5859V28.7358C36.5859 29.8565 36.3473 30.826 35.87 31.6442C35.3928 32.4624 34.7365 33.093 33.9013 33.5362C33.0661 33.9751 32.1072 34.1946 31.0249 34.1946C29.8189 34.1946 28.7599 33.924 27.848 33.3828C26.9403 32.8374 26.2308 32.0639 25.7195 31.0625C25.2124 30.0568 24.9588 28.8636 24.9588 27.483C24.9588 26.4261 25.108 25.4822 25.4062 24.6513C25.7088 23.8203 26.1307 23.1151 26.6719 22.5355C27.2131 21.9517 27.848 21.5085 28.5767 21.206C29.3054 20.8991 30.098 20.7457 30.9545 20.7457C31.679 20.7457 32.3544 20.8523 32.9808 21.0653C33.6072 21.2741 34.1634 21.5724 34.6491 21.9602C35.1392 22.348 35.5419 22.8082 35.8572 23.3409C36.1726 23.8736 36.3793 24.4616 36.4773 25.1051H34.0611ZM43.1234 34.2074C42.139 34.2074 41.2889 34.0028 40.573 33.5938C39.8613 33.1804 39.3137 32.5966 38.9302 31.8423C38.5467 31.0838 38.3549 30.1911 38.3549 29.1641C38.3549 28.1541 38.5467 27.2678 38.9302 26.505C39.318 25.7379 39.8592 25.1413 40.5538 24.7152C41.2484 24.2848 42.0645 24.0696 43.002 24.0696C43.6071 24.0696 44.1781 24.1676 44.715 24.3636C45.2562 24.5554 45.7335 24.8537 46.1468 25.2585C46.5645 25.6634 46.8926 26.179 47.1312 26.8054C47.3699 27.4276 47.4892 28.169 47.4892 29.0298V29.7393H39.4416V28.1797H45.2711C45.2669 27.7365 45.171 27.3423 44.9835 26.9972C44.796 26.6477 44.5339 26.3729 44.1973 26.1726C43.8649 25.9723 43.4771 25.8722 43.0339 25.8722C42.5609 25.8722 42.1454 25.9872 41.7875 26.2173C41.4295 26.4432 41.1504 26.7415 40.9501 27.1122C40.7541 27.4787 40.6539 27.8814 40.6497 28.3203V29.6818C40.6497 30.2528 40.7541 30.7429 40.9629 31.152C41.1717 31.5568 41.4636 31.8679 41.8386 32.0852C42.2136 32.2983 42.6525 32.4048 43.1554 32.4048C43.492 32.4048 43.7967 32.358 44.0694 32.2642C44.3422 32.1662 44.5787 32.0234 44.7789 31.8359C44.9792 31.6484 45.1305 31.4162 45.2328 31.1392L47.3933 31.3821C47.2569 31.9531 46.997 32.4517 46.6135 32.8778C46.2342 33.2997 45.7484 33.6278 45.1561 33.8622C44.5637 34.0923 43.8862 34.2074 43.1234 34.2074ZM54.3494 24.1974V25.9872H48.7053V24.1974H54.3494ZM50.0987 21.8452H52.4126V31.0625C52.4126 31.3736 52.4595 31.6122 52.5533 31.7784C52.6513 31.9403 52.7791 32.0511 52.9368 32.1108C53.0945 32.1705 53.2692 32.2003 53.4609 32.2003C53.6058 32.2003 53.7379 32.1896 53.8572 32.1683C53.9808 32.147 54.0746 32.1278 54.1385 32.1108L54.5284 33.9197C54.4048 33.9624 54.228 34.0092 53.9979 34.0604C53.772 34.1115 53.495 34.1413 53.1669 34.1499C52.5874 34.1669 52.0653 34.0795 51.6009 33.8878C51.1364 33.6918 50.7678 33.3892 50.495 32.9801C50.2266 32.571 50.0945 32.0597 50.0987 31.446V21.8452ZM67.9661 24.5234C67.9064 23.9652 67.655 23.5305 67.2118 23.2195C66.7729 22.9084 66.2019 22.7528 65.4988 22.7528C65.0044 22.7528 64.5804 22.8274 64.2267 22.9766C63.873 23.1257 63.6025 23.3281 63.415 23.5838C63.2275 23.8395 63.1316 24.1314 63.1273 24.4595C63.1273 24.7322 63.1891 24.9687 63.3127 25.169C63.4405 25.3693 63.6131 25.5398 63.8304 25.6804C64.0478 25.8168 64.2885 25.9318 64.5527 26.0256C64.8169 26.1193 65.0833 26.1982 65.3517 26.2621L66.579 26.5689C67.0733 26.6839 67.5485 26.8395 68.0044 27.0355C68.4647 27.2315 68.8759 27.4787 69.2381 27.777C69.6046 28.0753 69.8944 28.4354 70.1074 28.8572C70.3205 29.2791 70.427 29.7734 70.427 30.3402C70.427 31.1072 70.231 31.7827 69.839 32.3665C69.4469 32.946 68.8801 33.3999 68.1387 33.728C67.4015 34.0518 66.5087 34.2138 65.4604 34.2138C64.4419 34.2138 63.5577 34.0561 62.8077 33.7408C62.062 33.4254 61.4782 32.9652 61.0563 32.3601C60.6387 31.755 60.4128 31.0178 60.3787 30.1484H62.7118C62.7459 30.6044 62.8865 30.9837 63.1337 31.2862C63.3809 31.5888 63.7026 31.8146 64.0989 31.9638C64.4995 32.1129 64.9469 32.1875 65.4412 32.1875C65.9569 32.1875 66.4086 32.1108 66.7963 31.9574C67.1884 31.7997 67.4952 31.5824 67.7168 31.3054C67.9384 31.0241 68.0513 30.696 68.0556 30.321C68.0513 29.9801 67.9512 29.6989 67.7551 29.4773C67.5591 29.2514 67.2843 29.0639 66.9306 28.9148C66.5811 28.7614 66.1721 28.625 65.7033 28.5057L64.214 28.1222C63.1358 27.8452 62.2836 27.4254 61.6571 26.8629C61.035 26.2962 60.7239 25.544 60.7239 24.6065C60.7239 23.8352 60.9327 23.1598 61.3503 22.5803C61.7722 22.0007 62.3453 21.5511 63.0698 21.2315C63.7942 20.9077 64.6145 20.7457 65.5307 20.7457C66.4597 20.7457 67.2736 20.9077 67.9725 21.2315C68.6756 21.5511 69.2275 21.9964 69.628 22.5675C70.0286 23.1342 70.2353 23.7862 70.248 24.5234H67.9661ZM77.3416 24.1974V25.9872H71.6974V24.1974H77.3416ZM73.0909 21.8452H75.4048V31.0625C75.4048 31.3736 75.4517 31.6122 75.5455 31.7784C75.6435 31.9403 75.7713 32.0511 75.929 32.1108C76.0866 32.1705 76.2614 32.2003 76.4531 32.2003C76.598 32.2003 76.7301 32.1896 76.8494 32.1683C76.973 32.147 77.0668 32.1278 77.1307 32.1108L77.5206 33.9197C77.397 33.9624 77.2202 34.0092 76.9901 34.0604C76.7642 34.1115 76.4872 34.1413 76.1591 34.1499C75.5795 34.1669 75.0575 34.0795 74.593 33.8878C74.1286 33.6918 73.7599 33.3892 73.4872 32.9801C73.2188 32.571 73.0866 32.0597 73.0909 31.446V21.8452ZM82.1021 34.2138C81.4799 34.2138 80.9196 34.103 80.421 33.8814C79.9267 33.6555 79.5346 33.3232 79.2449 32.8842C78.9593 32.4453 78.8166 31.9041 78.8166 31.2607C78.8166 30.7067 78.9189 30.2486 79.1234 29.8864C79.3279 29.5241 79.6071 29.2344 79.9608 29.017C80.3145 28.7997 80.7129 28.6357 81.1561 28.5249C81.6035 28.4098 82.0659 28.3267 82.5431 28.2756C83.1184 28.2159 83.585 28.1626 83.943 28.1158C84.301 28.0646 84.5609 27.9879 84.7228 27.8857C84.889 27.7791 84.9721 27.6151 84.9721 27.3935V27.3551C84.9721 26.8736 84.8294 26.5007 84.5439 26.2365C84.2583 25.9723 83.8471 25.8402 83.3102 25.8402C82.7434 25.8402 82.2939 25.9638 81.9615 26.2109C81.6333 26.4581 81.4118 26.75 81.2967 27.0866L79.1362 26.7798C79.3066 26.1832 79.5879 25.6847 79.9799 25.2841C80.372 24.8793 80.8514 24.5767 81.4181 24.3764C81.9849 24.1719 82.6113 24.0696 83.2974 24.0696C83.7704 24.0696 84.2413 24.125 84.7101 24.2358C85.1788 24.3466 85.6071 24.5298 85.9949 24.7855C86.3826 25.0369 86.6937 25.38 86.9281 25.8146C87.1667 26.2493 87.286 26.7926 87.286 27.4446V34.0156H85.0616V32.6669H84.9849C84.8443 32.9396 84.6461 33.1953 84.3904 33.4339C84.139 33.6683 83.8216 33.858 83.438 34.0028C83.0588 34.1435 82.6135 34.2138 82.1021 34.2138ZM82.7029 32.5135C83.1674 32.5135 83.5701 32.4219 83.911 32.2386C84.252 32.0511 84.514 31.804 84.6973 31.4972C84.8848 31.1903 84.9785 30.8558 84.9785 30.4936V29.3366C84.9061 29.3963 84.7825 29.4517 84.6078 29.5028C84.4373 29.554 84.2456 29.5987 84.0325 29.6371C83.8194 29.6754 83.6085 29.7095 83.3997 29.7393C83.1909 29.7692 83.0098 29.7947 82.8564 29.8161C82.5112 29.8629 82.2022 29.9396 81.9295 30.0462C81.6568 30.1527 81.4416 30.3018 81.2839 30.4936C81.1262 30.6811 81.0474 30.924 81.0474 31.2223C81.0474 31.6484 81.2029 31.9702 81.514 32.1875C81.8251 32.4048 82.2214 32.5135 82.7029 32.5135ZM89.6127 34.0156V24.1974H91.8564V25.8338H91.9586C92.1376 25.267 92.4444 24.8303 92.8791 24.5234C93.318 24.2124 93.8187 24.0568 94.3812 24.0568C94.5091 24.0568 94.6518 24.0632 94.8095 24.076C94.9714 24.0845 95.1056 24.0994 95.2122 24.1207V26.2493C95.1142 26.2152 94.9586 26.1854 94.7456 26.1598C94.5368 26.13 94.3343 26.1151 94.1383 26.1151C93.7164 26.1151 93.3372 26.2067 93.0005 26.3899C92.6681 26.5689 92.4061 26.8182 92.2143 27.1378C92.0225 27.4574 91.9267 27.826 91.9267 28.2436V34.0156H89.6127ZM102.18 24.1974V25.9872H96.5353V24.1974H102.18ZM97.9288 21.8452H100.243V31.0625C100.243 31.3736 100.29 31.6122 100.383 31.7784C100.481 31.9403 100.609 32.0511 100.767 32.1108C100.925 32.1705 101.099 32.2003 101.291 32.2003C101.436 32.2003 101.568 32.1896 101.687 32.1683C101.811 32.147 101.905 32.1278 101.969 32.1108L102.358 33.9197C102.235 33.9624 102.058 34.0092 101.828 34.0604C101.602 34.1115 101.325 34.1413 100.997 34.1499C100.417 34.1669 99.8954 34.0795 99.4309 33.8878C98.9664 33.6918 98.5978 33.3892 98.3251 32.9801C98.0566 32.571 97.9245 32.0597 97.9288 31.446V21.8452ZM108.356 34.2074C107.371 34.2074 106.521 34.0028 105.805 33.5938C105.094 33.1804 104.546 32.5966 104.163 31.8423C103.779 31.0838 103.587 30.1911 103.587 29.1641C103.587 28.1541 103.779 27.2678 104.163 26.505C104.55 25.7379 105.092 25.1413 105.786 24.7152C106.481 24.2848 107.297 24.0696 108.234 24.0696C108.839 24.0696 109.411 24.1676 109.947 24.3636C110.489 24.5554 110.966 24.8537 111.379 25.2585C111.797 25.6634 112.125 26.179 112.364 26.8054C112.602 27.4276 112.722 28.169 112.722 29.0298V29.7393H104.674V28.1797H110.504C110.499 27.7365 110.403 27.3423 110.216 26.9972C110.028 26.6477 109.766 26.3729 109.43 26.1726C109.097 25.9723 108.71 25.8722 108.266 25.8722C107.793 25.8722 107.378 25.9872 107.02 26.2173C106.662 26.4432 106.383 26.7415 106.183 27.1122C105.987 27.4787 105.886 27.8814 105.882 28.3203V29.6818C105.882 30.2528 105.987 30.7429 106.195 31.152C106.404 31.5568 106.696 31.8679 107.071 32.0852C107.446 32.2983 107.885 32.4048 108.388 32.4048C108.724 32.4048 109.029 32.358 109.302 32.2642C109.575 32.1662 109.811 32.0234 110.011 31.8359C110.212 31.6484 110.363 31.4162 110.465 31.1392L112.626 31.3821C112.489 31.9531 112.229 32.4517 111.846 32.8778C111.467 33.2997 110.981 33.6278 110.388 33.8622C109.796 34.0923 109.119 34.2074 108.356 34.2074ZM118.323 34.1882C117.551 34.1882 116.861 33.9901 116.252 33.5938C115.642 33.1974 115.161 32.6222 114.807 31.8679C114.453 31.1136 114.276 30.1974 114.276 29.1193C114.276 28.0284 114.455 27.108 114.813 26.358C115.176 25.6037 115.664 25.0348 116.277 24.6513C116.891 24.2635 117.575 24.0696 118.329 24.0696C118.904 24.0696 119.377 24.1676 119.748 24.3636C120.119 24.5554 120.413 24.7876 120.63 25.0604C120.847 25.3288 121.016 25.5824 121.135 25.821H121.231V20.9247H123.551V34.0156H121.276V32.4688H121.135C121.016 32.7074 120.843 32.9609 120.617 33.2294C120.392 33.4936 120.093 33.7195 119.722 33.907C119.352 34.0945 118.885 34.1882 118.323 34.1882ZM118.968 32.2898C119.458 32.2898 119.876 32.1577 120.221 31.8935C120.566 31.625 120.828 31.2521 121.007 30.7749C121.186 30.2976 121.276 29.7415 121.276 29.1065C121.276 28.4716 121.186 27.9197 121.007 27.451C120.833 26.9822 120.573 26.6179 120.227 26.358C119.887 26.098 119.467 25.968 118.968 25.968C118.453 25.968 118.022 26.1023 117.677 26.3707C117.332 26.6392 117.072 27.0099 116.897 27.483C116.722 27.956 116.635 28.4972 116.635 29.1065C116.635 29.7202 116.722 30.2678 116.897 30.7493C117.076 31.2266 117.338 31.6037 117.683 31.8807C118.033 32.1534 118.461 32.2898 118.968 32.2898Z" fill="white"/>
</svg>
